{"glyphs":{"0":{"ha":763,"x_min":0,"x_max":0,"o":"m 382 979 b 707 485 592 979 707 804 b 382 -10 707 165 592 -10 b 56 485 171 -10 56 165 b 382 979 56 804 171 979 m 382 158 b 535 485 524 158 535 382 b 382 811 535 588 524 811 b 228 485 239 811 228 588 b 382 158 228 382 239 158 "},"1":{"ha":647,"x_min":0,"x_max":0,"o":"m 564 161 l 564 0 l 104 0 l 104 161 l 247 161 l 247 760 l 106 647 l 28 735 l 243 972 l 421 972 l 421 161 "},"2":{"ha":707,"x_min":0,"x_max":0,"o":"m 638 176 l 638 0 l 49 0 l 49 176 b 332 485 49 176 215 346 b 436 696 413 581 436 636 b 343 800 436 764 396 797 b 217 679 244 807 222 714 l 50 715 b 338 981 65 865 175 981 b 625 699 531 981 632 869 b 472 389 621 599 568 494 b 276 176 410 321 336 242 "},"3":{"ha":729,"x_min":0,"x_max":0,"o":"m 439 586 b 679 286 604 567 692 439 b 340 -11 664 104 532 -11 b 28 176 200 -11 82 65 l 168 254 b 331 163 188 221 236 167 b 499 285 433 157 489 222 b 371 456 513 368 471 444 b 275 444 333 460 297 456 l 183 544 l 406 794 l 101 794 l 101 972 l 614 972 l 614 794 l 415 589 b 439 586 422 588 431 588 "},"4":{"ha":779,"x_min":0,"x_max":0,"o":"m 703 200 l 614 200 l 614 0 l 439 0 l 439 200 l 49 200 l 49 376 l 404 972 l 594 972 l 239 376 l 439 376 l 439 564 l 614 564 l 614 376 l 703 376 "},"5":{"ha":736,"x_min":0,"x_max":0,"o":"m 442 594 b 679 286 608 568 692 439 b 349 -11 664 104 540 -11 b 28 176 207 -11 81 65 l 168 254 b 329 163 186 221 239 167 b 499 285 432 157 488 222 b 369 451 513 367 475 439 b 239 432 307 458 263 442 l 92 469 l 193 971 l 639 971 l 639 794 l 314 794 l 274 588 b 442 594 308 594 368 606 "},"6":{"ha":743,"x_min":0,"x_max":0,"o":"m 367 629 b 688 310 567 624 688 488 b 361 -11 688 124 547 -11 b 35 310 175 -11 35 124 b 101 533 35 375 58 461 b 382 972 150 614 382 972 l 582 972 l 367 629 m 361 158 b 507 310 447 158 507 221 b 361 461 507 399 447 461 b 215 310 276 461 215 399 b 361 158 215 221 276 158 "},"7":{"ha":682,"x_min":0,"x_max":0,"o":"m 613 972 l 613 794 l 267 0 l 83 0 l 428 794 l 56 794 l 56 972 "},"8":{"ha":806,"x_min":0,"x_max":0,"o":"m 572 539 b 729 301 661 504 729 404 b 396 -10 729 122 607 -10 b 63 301 186 -10 63 122 b 219 539 63 404 132 504 b 118 724 160 583 118 651 b 396 981 118 876 232 981 b 674 724 561 981 674 876 b 572 539 674 651 632 583 m 396 825 b 283 717 324 825 283 776 b 396 608 283 657 325 608 b 508 717 467 608 508 657 b 396 825 508 776 468 825 m 396 147 b 551 303 497 147 551 219 b 396 454 551 383 499 454 b 240 303 294 454 240 383 b 396 147 240 219 296 147 "},"9":{"ha":729,"x_min":0,"x_max":0,"o":"m 356 342 b 35 661 157 349 35 483 b 361 982 35 847 175 982 b 688 661 547 982 688 847 b 621 438 688 597 667 517 b 340 0 574 356 340 0 l 140 0 l 356 342 m 361 814 b 215 661 275 813 215 750 b 361 510 215 574 275 510 b 507 661 447 510 507 574 b 361 814 507 750 447 813 "},"A":{"ha":928,"x_min":0,"x_max":0,"o":"m 914 0 l 704 0 l 464 694 l 224 0 l 14 0 l 369 972 l 558 972 "},"B":{"ha":814,"x_min":0,"x_max":0,"o":"m 447 176 b 579 297 533 176 579 228 b 447 418 579 367 533 418 l 261 418 l 261 176 l 447 176 m 632 513 b 772 297 717 471 772 399 b 447 0 772 126 661 0 l 76 0 l 76 594 l 428 594 b 531 694 500 594 531 642 b 428 794 531 747 500 794 l 76 794 l 76 972 l 424 972 b 719 694 610 972 719 846 b 632 513 719 624 685 560 "},"C":{"ha":943,"x_min":0,"x_max":0,"o":"m 513 174 b 747 300 619 174 700 222 l 915 217 b 513 -11 836 78 692 -11 b 42 485 233 -11 42 206 b 513 981 42 764 233 981 b 915 753 692 981 836 890 l 747 669 b 513 796 700 747 619 796 b 231 485 336 796 231 663 b 513 174 231 307 336 174 m 422 483 b 517 576 422 535 465 576 b 611 483 569 576 611 535 b 517 389 611 431 569 389 b 422 483 465 389 422 431 "},"D":{"ha":940,"x_min":0,"x_max":0,"o":"m 389 972 b 899 486 711 972 899 769 b 389 0 899 201 711 0 b 76 0 389 0 76 0 l 76 456 l 261 456 l 261 176 l 385 176 b 714 486 589 176 714 300 b 385 794 714 671 589 794 l 76 794 l 76 972 b 389 972 76 972 389 972 "},"E":{"ha":778,"x_min":0,"x_max":0,"o":"m 722 176 l 722 0 l 76 0 l 76 176 m 671 397 l 76 397 l 76 574 l 671 574 m 714 794 l 76 794 l 76 972 l 714 972 "},"F":{"ha":769,"x_min":0,"x_max":0,"o":"m 76 574 l 621 574 l 621 397 l 261 397 l 261 0 l 76 0 m 714 972 l 714 794 l 76 794 l 76 972 "},"G":{"ha":993,"x_min":0,"x_max":0,"o":"m 924 575 l 924 136 b 504 -11 853 40 679 -29 b 49 485 226 18 49 206 b 511 981 49 764 229 965 b 894 872 664 988 806 943 l 799 738 b 515 799 722 781 622 808 b 238 485 357 793 238 663 b 519 174 238 307 344 197 b 746 217 615 161 696 179 l 746 575 "},"I":{"ha":338,"x_min":0,"x_max":0,"o":"m 76 679 l 261 679 l 261 0 l 76 0 m 261 972 l 261 815 l 76 815 l 76 972 "},"J":{"ha":613,"x_min":0,"x_max":0,"o":"m 536 679 l 536 332 b 253 -11 536 86 422 -11 b 14 93 142 -11 60 40 l 122 224 b 242 169 139 204 178 167 b 351 311 306 172 351 221 l 351 679 m 536 972 l 536 815 l 351 815 l 351 972 "},"K":{"ha":868,"x_min":0,"x_max":0,"o":"m 379 399 l 261 399 l 261 0 l 76 0 l 76 972 l 261 972 l 261 575 l 375 575 l 631 972 l 833 972 l 540 493 l 854 0 l 624 0 "},"L":{"ha":701,"x_min":0,"x_max":0,"o":"m 660 176 l 660 0 l 157 0 l 336 176 m 261 306 l 76 122 l 76 679 l 261 679 m 261 815 l 76 815 l 76 972 l 261 972 "},"M":{"ha":1107,"x_min":0,"x_max":0,"o":"m 1031 981 l 1031 0 l 846 0 l 846 525 l 558 218 l 546 218 l 261 525 l 261 0 l 76 0 l 76 981 l 88 981 l 553 467 l 1018 981 "},"N":{"ha":910,"x_min":0,"x_max":0,"o":"m 649 972 l 833 972 l 833 -11 l 821 -11 l 261 544 l 261 0 l 76 0 l 76 981 l 89 981 l 649 426 "},"O":{"ha":1026,"x_min":0,"x_max":0,"o":"m 514 981 b 985 485 793 981 985 764 b 514 -11 985 206 793 -11 b 42 485 235 -11 42 206 b 514 981 42 764 235 981 m 514 174 b 796 485 690 174 796 307 b 514 796 796 663 690 796 b 231 485 336 796 231 663 b 514 174 231 307 336 174 m 514 579 b 607 485 565 579 607 536 b 514 390 607 433 565 390 b 419 485 461 390 419 433 b 514 579 419 536 461 579 "},"P":{"ha":815,"x_min":0,"x_max":0,"o":"m 436 972 b 774 653 653 972 774 831 b 436 333 774 475 653 333 l 261 333 l 261 0 l 76 0 l 76 510 l 432 510 b 583 653 525 510 583 569 b 432 794 583 736 525 794 l 76 794 l 76 972 l 436 972 "},"Q":{"ha":1026,"x_min":0,"x_max":0,"o":"m 985 485 b 601 -3 985 236 832 36 l 601 -208 l 415 -208 l 415 -1 b 42 485 190 43 42 239 b 514 981 42 764 235 981 b 985 485 793 981 985 764 m 514 174 b 796 485 690 174 796 307 b 514 796 796 663 690 796 b 231 485 336 796 231 663 b 514 174 231 307 336 174 "},"R":{"ha":818,"x_min":0,"x_max":0,"o":"m 396 333 l 261 333 l 261 0 l 76 0 l 76 510 l 432 510 b 582 653 524 510 582 569 b 432 794 582 736 524 794 l 76 794 l 76 972 l 436 972 b 774 653 653 972 774 831 b 589 361 774 522 710 411 l 797 0 l 589 0 "},"S":{"ha":807,"x_min":0,"x_max":0,"o":"m 439 585 b 772 282 628 528 772 461 b 408 -17 772 121 660 -19 b 338 -12 385 -17 361 -15 l 400 171 b 575 274 507 175 575 218 b 369 406 575 333 532 357 b 54 700 144 474 54 557 b 397 981 54 828 147 981 b 518 964 439 981 479 975 l 404 797 b 394 797 401 797 397 797 b 250 707 304 797 250 761 b 439 585 250 661 289 631 m 197 290 b 264 206 204 263 221 232 l 200 29 b 28 225 104 74 43 144 "},"T":{"ha":790,"x_min":0,"x_max":0,"o":"m 749 972 l 749 794 l 40 794 l 40 972 m 303 650 l 488 650 l 488 0 l 303 0 "},"U":{"ha":883,"x_min":0,"x_max":0,"o":"m 629 404 l 811 325 b 442 -11 789 115 649 -11 b 69 382 215 -11 69 139 l 69 679 l 254 679 l 254 386 b 442 174 254 254 325 174 b 629 386 557 174 629 254 m 814 972 l 814 489 l 629 569 l 629 972 m 254 815 l 69 815 l 69 972 l 254 972 "},"V":{"ha":919,"x_min":0,"x_max":0,"o":"m 906 972 l 554 0 l 365 0 l 365 1 l 700 972 m 376 517 l 279 236 l 14 972 l 219 972 "},"W":{"ha":1444,"x_min":0,"x_max":0,"o":"m 994 972 l 828 586 l 950 278 l 1226 972 l 1431 972 l 1044 0 l 856 0 l 722 342 l 589 0 l 400 0 l 14 972 l 218 972 l 493 278 l 617 585 l 450 972 l 654 972 l 722 821 l 789 972 "},"X":{"ha":918,"x_min":0,"x_max":0,"o":"m 904 0 l 679 0 l 368 507 l 653 972 l 878 972 l 586 506 m 274 600 l 40 972 l 265 972 l 382 779 m 268 406 l 378 228 l 239 0 l 14 0 "},"Y":{"ha":889,"x_min":0,"x_max":0,"o":"m 353 208 l 538 208 l 538 0 l 353 0 m 875 972 l 538 369 l 353 369 l 14 972 l 226 972 l 444 568 l 664 972 "},"Z":{"ha":832,"x_min":0,"x_max":0,"o":"m 783 176 l 783 0 l 42 0 l 42 176 l 543 796 l 772 796 l 271 176 m 322 796 l 83 796 l 83 972 l 464 972 "},"a":{"ha":681,"x_min":0,"x_max":0,"o":"m 338 679 b 611 418 483 679 611 613 l 611 0 l 428 0 l 428 63 b 222 -11 403 38 336 -11 b 14 158 92 -11 19 57 b 256 386 14 304 114 356 b 424 449 368 411 415 411 b 325 528 433 489 390 531 b 214 449 268 526 225 500 l 60 482 b 338 679 72 569 171 679 m 428 294 b 279 260 428 294 367 282 b 204 164 211 242 192 197 b 299 132 215 133 257 125 b 428 274 371 143 422 200 "},"b":{"ha":768,"x_min":0,"x_max":0,"o":"m 404 679 b 726 335 597 679 726 528 b 404 -11 726 142 597 -11 b 226 57 333 -11 272 15 l 226 0 l 42 0 l 42 972 l 226 972 l 226 611 b 404 679 272 653 333 679 m 385 158 b 542 335 483 158 542 235 b 385 511 542 435 483 511 b 226 335 285 511 226 435 b 385 158 226 235 285 158 "},"c":{"ha":657,"x_min":0,"x_max":0,"o":"m 353 158 b 476 218 408 158 450 181 l 629 143 b 353 -11 574 50 475 -11 b 14 335 160 -11 14 142 b 353 679 14 528 160 679 b 629 525 475 679 574 618 l 476 451 b 353 511 450 488 408 511 b 196 335 253 511 196 435 b 353 158 196 235 253 158 "},"d":{"ha":765,"x_min":0,"x_max":0,"o":"m 696 972 l 696 0 l 511 0 l 511 57 b 332 -11 464 15 404 -11 b 14 335 139 -11 14 142 b 332 679 14 528 139 679 b 511 611 404 679 464 653 l 511 972 m 353 158 b 511 335 453 158 511 235 b 353 511 511 435 453 511 b 194 335 253 511 194 435 b 353 158 194 235 253 158 "},"e":{"ha":697,"x_min":0,"x_max":0,"o":"m 204 268 b 353 158 225 203 276 158 b 476 218 407 158 450 181 l 629 143 b 353 -11 574 50 475 -11 b 14 335 160 -11 14 142 b 346 679 14 528 153 679 b 656 335 538 679 656 528 b 650 268 656 311 654 289 m 346 511 b 203 397 268 511 219 464 l 481 397 b 346 511 465 464 424 511 "},"f":{"ha":514,"x_min":0,"x_max":0,"o":"m 368 800 b 289 688 306 803 289 760 l 289 669 l 436 669 l 436 493 l 289 493 l 289 -1 l 104 -1 l 104 493 l 14 493 l 14 669 l 104 669 b 343 981 104 888 189 981 b 542 897 422 981 494 943 l 443 768 b 368 800 432 778 407 799 "},"g":{"ha":719,"x_min":0,"x_max":0,"o":"m 690 -18 b 358 -261 697 -169 568 -262 b 28 -142 193 -260 64 -187 l 117 -36 b 333 -110 157 -76 232 -104 b 517 -36 464 -117 517 -82 b 343 7 517 7 468 0 b 158 57 264 13 199 26 b 181 256 108 93 99 185 b 68 447 114 294 68 361 b 333 679 68 590 190 679 b 499 632 396 679 453 663 b 686 728 543 689 611 728 l 686 579 b 571 553 640 582 600 574 b 599 447 588 522 599 488 b 333 215 599 304 476 215 b 306 217 324 215 314 217 b 282 179 285 206 279 190 b 361 160 288 164 321 160 b 690 -18 600 160 685 101 m 333 542 b 226 447 271 542 226 501 b 333 353 226 393 271 353 b 440 447 396 353 440 393 b 333 542 440 501 396 542 "},"h":{"ha":700,"x_min":0,"x_max":0,"o":"m 382 679 b 631 364 536 679 631 569 l 631 0 l 446 0 l 446 371 b 338 507 446 468 404 507 b 226 364 272 507 226 463 l 226 0 l 42 0 l 42 972 l 226 972 l 226 611 b 382 679 267 653 319 679 "},"i":{"ha":318,"x_min":0,"x_max":0,"o":"m 146 763 b 42 865 88 763 42 808 b 146 969 42 924 88 969 b 249 865 203 969 249 924 b 146 763 249 808 203 763 m 53 669 l 238 669 l 238 0 l 53 0 "},"j":{"ha":307,"x_min":0,"x_max":0,"o":"m 147 763 b 44 865 90 763 44 808 b 147 969 44 924 90 969 b 251 865 204 969 251 924 b 147 763 251 808 204 763 m 56 669 l 240 669 l 240 -8 b 3 -314 240 -207 169 -314 b -125 -279 -42 -314 -86 -300 l -72 -129 b -29 -137 -60 -133 -46 -137 b 56 -12 10 -137 56 -119 "},"k":{"ha":700,"x_min":0,"x_max":0,"o":"m 303 246 l 226 246 l 226 0 l 42 0 l 42 972 l 226 972 l 226 422 l 300 422 l 461 669 l 669 669 l 450 335 l 679 0 l 468 0 "},"l":{"ha":461,"x_min":0,"x_max":0,"o":"m 447 68 b 249 -11 401 18 329 -15 b 49 269 135 -6 49 47 l 49 1042 l 233 1042 l 233 260 b 294 160 233 214 244 164 b 361 182 324 157 347 169 "},"m":{"ha":1071,"x_min":0,"x_max":0,"o":"m 753 679 b 1001 364 907 679 1001 569 l 1001 0 l 817 0 l 817 371 b 717 507 817 458 783 507 b 614 364 650 507 614 457 l 614 0 l 429 0 l 429 371 b 329 507 429 458 396 507 b 226 364 264 507 226 457 l 226 0 l 42 0 l 42 669 l 226 669 l 226 611 b 382 679 267 653 319 679 b 560 593 461 679 521 650 b 753 679 608 647 676 679 "},"n":{"ha":706,"x_min":0,"x_max":0,"o":"m 389 679 b 636 364 542 679 636 569 l 636 0 l 451 0 l 451 371 b 344 507 451 468 411 507 b 233 364 278 507 233 463 l 233 0 l 49 0 l 49 669 l 233 669 l 233 611 b 389 679 274 653 326 679 "},"o":{"ha":740,"x_min":0,"x_max":0,"o":"m 360 679 b 699 335 553 679 699 528 b 360 -11 699 142 553 -11 b 21 335 167 -11 21 142 b 360 679 21 528 167 679 m 360 158 b 518 335 460 158 518 235 b 360 511 518 435 460 511 b 201 335 260 511 201 435 b 360 158 201 235 260 158 "},"p":{"ha":768,"x_min":0,"x_max":0,"o":"m 404 679 b 726 335 597 679 726 528 b 404 -11 726 142 597 -11 b 226 58 333 -11 272 15 l 226 -303 l 42 -303 l 42 669 l 226 669 l 226 613 b 404 679 272 654 333 679 m 385 158 b 542 335 485 158 542 235 b 385 511 542 435 485 511 b 226 335 285 511 226 435 b 385 158 226 235 285 158 "},"q":{"ha":769,"x_min":0,"x_max":0,"o":"m 700 669 l 700 -303 l 515 -303 l 515 58 b 336 -11 468 15 408 -11 b 14 335 143 -11 14 142 b 336 679 14 528 143 679 b 515 613 408 679 468 654 l 515 669 m 357 158 b 515 335 457 158 515 235 b 357 511 515 435 457 511 b 199 335 257 511 199 435 b 357 158 199 235 257 158 "},"r":{"ha":449,"x_min":0,"x_max":0,"o":"m 382 679 b 435 675 400 679 418 678 l 400 490 b 338 507 383 501 363 507 b 226 364 272 507 226 463 l 226 0 l 42 0 l 42 669 l 226 669 l 226 611 b 382 679 267 653 319 679 "},"s":{"ha":575,"x_min":0,"x_max":0,"o":"m 336 410 b 546 193 493 361 550 294 b 279 -10 542 72 433 -10 b -7 150 139 -10 15 68 l 128 222 b 247 157 142 188 200 160 b 351 203 297 154 353 167 b 225 276 350 240 318 244 b 19 488 79 328 15 378 b 272 678 24 581 99 678 b 519 513 433 678 510 574 l 378 472 b 297 531 371 494 349 526 b 210 483 226 536 208 501 b 336 410 211 458 231 442 "},"t":{"ha":524,"x_min":0,"x_max":0,"o":"m 496 56 b 319 -7 461 22 399 -7 b 99 206 178 -7 99 67 l 99 492 l 7 492 l 7 669 l 99 669 l 99 819 l 283 861 l 283 669 l 439 669 l 439 492 l 283 492 l 283 265 b 357 169 283 206 299 169 b 435 197 382 169 417 181 "},"u":{"ha":700,"x_min":0,"x_max":0,"o":"m 631 669 l 631 306 b 336 -10 631 100 518 -10 b 42 306 154 -10 42 100 l 42 669 l 228 669 l 228 297 b 336 163 228 201 269 163 b 446 297 403 163 446 201 l 446 669 "},"v":{"ha":675,"x_min":0,"x_max":0,"o":"m 417 0 l 243 0 l 0 669 l 189 669 l 331 247 l 472 669 l 661 669 "},"w":{"ha":1043,"x_min":0,"x_max":0,"o":"m 1029 669 l 799 0 l 651 0 l 514 390 l 378 0 l 231 0 l 0 669 l 185 669 l 317 288 l 447 669 l 582 669 l 713 288 l 843 669 "},"x":{"ha":708,"x_min":0,"x_max":0,"o":"m 688 0 l 479 0 l 343 206 l 208 0 l 0 0 l 231 343 l 11 669 l 221 669 l 343 481 l 467 669 l 676 669 l 457 343 "},"y":{"ha":676,"x_min":0,"x_max":0,"o":"m 663 669 b 424 14 663 669 465 118 b 49 -278 350 -175 276 -310 l 78 -107 b 240 11 136 -117 189 -121 l 0 669 l 190 669 l 332 254 l 474 669 l 663 669 "},"z":{"ha":621,"x_min":0,"x_max":0,"o":"m 558 176 l 558 0 l 42 0 l 42 176 l 332 492 l 60 492 l 60 669 l 546 669 l 546 492 l 256 176 "},"А":{"ha":928,"x_min":0,"x_max":0,"o":"m 914 0 l 704 0 l 464 694 l 224 0 l 14 0 l 369 972 l 558 972 "},"В":{"ha":814,"x_min":0,"x_max":0,"o":"m 447 176 b 579 297 533 176 579 228 b 447 418 579 367 533 418 l 261 418 l 261 176 l 447 176 m 632 513 b 772 297 717 471 772 399 b 447 0 772 126 661 0 l 76 0 l 76 594 l 428 594 b 531 694 500 594 531 642 b 428 794 531 747 500 794 l 76 794 l 76 972 l 424 972 b 719 694 610 972 719 846 b 632 513 719 624 685 560 "},"С":{"ha":943,"x_min":0,"x_max":0,"o":"m 513 174 b 747 300 619 174 700 222 l 915 217 b 513 -11 836 78 692 -11 b 42 485 233 -11 42 206 b 513 981 42 764 233 981 b 915 753 692 981 836 890 l 747 669 b 513 796 700 747 619 796 b 231 485 336 796 231 663 b 513 174 231 307 336 174 m 422 483 b 517 576 422 535 465 576 b 611 483 569 576 611 535 b 517 389 611 431 569 389 b 422 483 465 389 422 431 "},"Е":{"ha":778,"x_min":0,"x_max":0,"o":"m 722 176 l 722 0 l 76 0 l 76 176 m 671 397 l 76 397 l 76 574 l 671 574 m 714 794 l 76 794 l 76 972 l 714 972 "},"Н":{"ha":914,"x_min":0,"x_max":0,"o":"m 76 261 l 261 261 l 261 0 l 76 0 m 838 574 l 838 0 l 653 0 l 653 397 l 76 397 l 76 972 l 261 972 l 261 574 m 838 972 l 838 711 l 653 711 l 653 972 "},"К":{"ha":868,"x_min":0,"x_max":0,"o":"m 379 399 l 261 399 l 261 0 l 76 0 l 76 972 l 261 972 l 261 575 l 375 575 l 631 972 l 833 972 l 540 493 l 854 0 l 624 0 "},"М":{"ha":1107,"x_min":0,"x_max":0,"o":"m 1031 981 l 1031 0 l 846 0 l 846 525 l 558 218 l 546 218 l 261 525 l 261 0 l 76 0 l 76 981 l 88 981 l 553 467 l 1018 981 "},"О":{"ha":1026,"x_min":0,"x_max":0,"o":"m 514 981 b 985 485 793 981 985 764 b 514 -11 985 206 793 -11 b 42 485 235 -11 42 206 b 514 981 42 764 235 981 m 514 174 b 796 485 690 174 796 307 b 514 796 796 663 690 796 b 231 485 336 796 231 663 b 514 174 231 307 336 174 m 514 579 b 607 485 565 579 607 536 b 514 390 607 433 565 390 b 419 485 461 390 419 433 b 514 579 419 536 461 579 "},"Р":{"ha":815,"x_min":0,"x_max":0,"o":"m 436 972 b 774 653 653 972 774 831 b 436 333 774 475 653 333 l 261 333 l 261 0 l 76 0 l 76 510 l 432 510 b 583 653 525 510 583 569 b 432 794 583 736 525 794 l 76 794 l 76 972 l 436 972 "},"Т":{"ha":790,"x_min":0,"x_max":0,"o":"m 749 972 l 749 794 l 40 794 l 40 972 m 303 650 l 488 650 l 488 0 l 303 0 "},"Х":{"ha":918,"x_min":0,"x_max":0,"o":"m 904 0 l 679 0 l 368 507 l 653 972 l 878 972 l 586 506 m 274 600 l 40 972 l 265 972 l 382 779 m 268 406 l 378 228 l 239 0 l 14 0 "},"а":{"ha":681,"x_min":0,"x_max":0,"o":"m 338 679 b 611 418 483 679 611 613 l 611 0 l 428 0 l 428 63 b 222 -11 403 38 336 -11 b 14 158 92 -11 19 57 b 256 386 14 304 114 356 b 424 449 368 411 415 411 b 325 528 433 489 390 531 b 214 449 268 526 225 500 l 60 482 b 338 679 72 569 171 679 m 428 294 b 279 260 428 294 367 282 b 204 164 211 242 192 197 b 299 132 215 133 257 125 b 428 274 371 143 422 200 "},"с":{"ha":657,"x_min":0,"x_max":0,"o":"m 353 158 b 476 218 408 158 450 181 l 629 143 b 353 -11 574 50 475 -11 b 14 335 160 -11 14 142 b 353 679 14 528 160 679 b 629 525 475 679 574 618 l 476 451 b 353 511 450 488 408 511 b 196 335 253 511 196 435 b 353 158 196 235 253 158 "},"е":{"ha":697,"x_min":0,"x_max":0,"o":"m 204 268 b 353 158 225 203 276 158 b 476 218 407 158 450 181 l 629 143 b 353 -11 574 50 475 -11 b 14 335 160 -11 14 142 b 346 679 14 528 153 679 b 656 335 538 679 656 528 b 650 268 656 311 654 289 m 346 511 b 203 397 268 511 219 464 l 481 397 b 346 511 465 464 424 511 "},"о":{"ha":740,"x_min":0,"x_max":0,"o":"m 360 679 b 699 335 553 679 699 528 b 360 -11 699 142 553 -11 b 21 335 167 -11 21 142 b 360 679 21 528 167 679 m 360 158 b 518 335 460 158 518 235 b 360 511 518 435 460 511 b 201 335 260 511 201 435 b 360 158 201 235 260 158 "},"р":{"ha":768,"x_min":0,"x_max":0,"o":"m 404 679 b 726 335 597 679 726 528 b 404 -11 726 142 597 -11 b 226 58 333 -11 272 15 l 226 -303 l 42 -303 l 42 669 l 226 669 l 226 613 b 404 679 272 654 333 679 m 385 158 b 542 335 485 158 542 235 b 385 511 542 435 485 511 b 226 335 285 511 226 435 b 385 158 226 235 285 158 "},"х":{"ha":708,"x_min":0,"x_max":0,"o":"m 688 0 l 479 0 l 343 206 l 208 0 l 0 0 l 231 343 l 11 669 l 221 669 l 343 481 l 467 669 l 676 669 l 457 343 "},"у":{"ha":676,"x_min":0,"x_max":0,"o":"m 663 669 b 424 14 663 669 465 118 b 49 -278 350 -175 276 -310 l 78 -107 b 240 11 136 -117 189 -121 l 0 669 l 190 669 l 332 254 l 474 669 l 663 669 "},"Б":{"ha":804,"x_min":0,"x_max":0,"o":"m 436 603 b 763 301 633 603 763 471 b 436 0 763 131 633 0 l 76 0 l 76 603 l 436 603 m 436 176 b 574 301 522 176 574 232 b 436 426 574 371 522 426 l 261 426 l 261 176 l 436 176 m 664 796 l 76 796 l 76 972 l 664 972 "},"Г":{"ha":646,"x_min":0,"x_max":0,"o":"m 76 156 l 261 156 l 261 0 l 76 0 m 604 972 l 604 796 l 338 796 l 160 972 m 76 850 l 261 667 l 261 293 l 76 293 "},"Д":{"ha":967,"x_min":0,"x_max":0,"o":"m 825 796 l 825 176 l 925 176 l 925 -165 l 740 -165 l 740 0 l 213 0 l 213 -165 l 28 -165 l 28 176 l 106 176 b 249 614 186 293 228 451 l 435 614 b 319 176 418 458 383 307 l 640 176 l 640 796 l 263 796 l 263 972 l 924 972 l 924 796 "},"Ж":{"ha":1356,"x_min":0,"x_max":0,"o":"m 769 294 l 769 0 l 585 0 l 585 294 l 19 972 l 261 972 l 676 471 l 1092 972 l 1335 972 m 1356 0 l 1129 0 l 928 283 l 1050 429 m 769 739 l 585 739 l 585 972 l 769 972 m 306 429 l 429 283 l 226 0 l 0 0 "},"Ё":{"ha":778,"x_min":0,"x_max":0,"o":"m 322 1101 l 179 1101 l 179 1244 l 322 1244 m 608 1101 l 465 1101 l 465 1244 l 608 1244 m 722 176 l 722 0 l 76 0 l 76 176 m 671 397 l 76 397 l 76 574 l 671 574 m 714 794 l 76 794 l 76 972 l 714 972 "},"З":{"ha":768,"x_min":0,"x_max":0,"o":"m 564 514 b 733 285 656 485 733 400 b 369 -11 733 113 599 -11 b 14 149 204 -11 57 78 l 153 250 b 361 163 178 221 246 163 b 540 297 476 163 540 226 b 361 422 540 369 493 422 l 236 422 l 236 576 l 365 575 b 501 688 472 575 497 635 b 354 815 506 740 474 815 b 263 815 353 815 311 815 l 263 736 l 86 736 l 86 981 l 369 981 b 682 724 563 981 682 869 b 564 514 682 625 625 551 "},"И":{"ha":901,"x_min":0,"x_max":0,"o":"m 261 426 l 813 981 l 825 981 l 825 0 l 640 0 l 640 544 l 89 -11 l 76 -11 l 76 972 l 261 972 "},"Й":{"ha":901,"x_min":0,"x_max":0,"o":"m 638 1100 l 283 1100 l 283 1236 l 638 1236 m 261 972 l 76 972 l 76 -11 l 89 -11 l 640 544 l 640 0 l 825 0 l 825 981 l 813 981 l 261 426 "},"Л":{"ha":975,"x_min":0,"x_max":0,"o":"m 933 972 l 933 796 l 835 796 l 835 417 l 650 417 l 650 796 l 426 796 b 265 47 426 482 414 160 b 14 -4 197 -4 106 -24 l 46 181 b 150 194 101 168 135 182 b 243 972 261 289 243 657 m 650 261 l 835 261 l 835 0 l 650 0 "},"П":{"ha":958,"x_min":0,"x_max":0,"o":"m 76 510 l 261 510 l 261 0 l 76 0 m 917 796 l 817 796 l 817 0 l 632 0 l 632 796 l 76 796 l 76 972 l 917 972 "},"У":{"ha":828,"x_min":0,"x_max":0,"o":"m 814 972 l 407 0 l 206 0 l 335 296 l 14 972 l 221 972 l 429 506 l 613 972 "},"Ф":{"ha":1096,"x_min":0,"x_max":0,"o":"m 1068 485 b 640 79 1068 238 878 106 l 640 -40 l 456 -40 l 456 79 b 28 485 218 106 28 238 b 456 894 28 732 218 867 l 456 1013 l 640 1013 l 640 894 b 1068 485 878 867 1068 732 m 640 265 b 879 485 775 282 879 339 b 549 715 879 663 725 715 b 217 485 371 715 217 663 b 456 265 217 339 321 282 l 456 488 l 640 488 "},"Ц":{"ha":940,"x_min":0,"x_max":0,"o":"m 899 176 l 899 -165 l 714 -165 l 714 0 l 76 0 l 76 679 l 261 679 l 261 176 m 261 815 l 76 815 l 76 972 l 261 972 m 778 331 l 593 331 l 593 972 l 778 972 "},"Ч":{"ha":828,"x_min":0,"x_max":0,"o":"m 751 972 l 751 0 l 567 0 l 567 343 l 42 343 l 42 972 l 226 972 l 226 519 l 567 519 l 567 972 "},"Ш":{"ha":1306,"x_min":0,"x_max":0,"o":"m 746 331 l 561 331 l 561 972 l 746 972 m 1229 0 l 76 0 l 76 972 l 261 972 l 261 176 l 1044 176 l 1044 972 l 1229 972 "},"Щ":{"ha":1390,"x_min":0,"x_max":0,"o":"m 1349 176 l 1349 -165 l 1164 -165 l 1164 0 l 76 0 l 76 679 l 261 679 l 261 176 l 1044 176 l 1044 972 l 1229 972 l 1229 176 m 744 331 l 560 331 l 560 972 l 744 972 m 261 815 l 76 815 l 76 972 l 261 972 "},"Ъ":{"ha":931,"x_min":0,"x_max":0,"o":"m 564 639 b 903 319 781 639 903 497 b 564 0 903 142 781 0 l 204 0 l 204 240 l 389 240 l 389 176 l 560 176 b 710 319 651 176 710 236 b 560 463 710 403 651 463 l 204 463 l 204 796 l 28 796 l 28 972 l 389 972 l 389 639 l 564 639 "},"Ы":{"ha":1131,"x_min":0,"x_max":0,"o":"m 436 639 b 775 319 653 639 775 497 b 436 0 775 142 653 0 l 76 0 l 76 240 l 261 240 l 261 176 l 432 176 b 582 319 525 176 582 236 b 432 463 582 403 525 463 l 76 463 l 76 972 l 261 972 l 261 639 l 436 639 m 869 679 l 1054 679 l 1054 0 l 869 0 m 1054 972 l 1054 815 l 869 815 l 869 972 "},"Ь":{"ha":803,"x_min":0,"x_max":0,"o":"m 435 639 b 775 319 653 639 775 497 b 435 0 775 142 653 0 l 76 0 l 76 240 l 261 240 l 261 176 l 432 176 b 582 319 524 176 582 236 b 432 463 582 403 524 463 l 76 463 l 76 972 l 261 972 l 261 639 l 435 639 "},"Э":{"ha":943,"x_min":0,"x_max":0,"o":"m 558 397 l 313 397 l 313 575 l 558 575 m 429 981 b 901 485 708 981 901 764 b 429 -11 901 206 708 -11 b 26 217 250 -11 106 78 l 194 300 b 429 174 242 222 322 174 b 713 485 606 174 713 307 b 429 796 713 663 606 796 b 194 669 322 796 242 747 l 26 753 b 429 981 106 890 250 981 "},"Ю":{"ha":1369,"x_min":0,"x_max":0,"o":"m 857 981 b 1328 485 1136 981 1328 764 b 857 -10 1328 206 1136 -10 b 392 397 607 -10 428 163 l 261 397 l 261 0 l 76 0 l 76 972 l 261 972 l 261 575 l 392 575 b 857 981 428 808 608 981 m 857 175 b 1139 485 1033 175 1139 308 b 857 796 1139 663 1033 796 b 574 485 679 796 574 663 b 857 175 574 308 679 175 m 857 579 b 951 485 910 579 951 536 b 857 390 951 433 910 390 b 763 485 806 390 763 433 b 857 579 763 536 806 579 "},"Я":{"ha":815,"x_min":0,"x_max":0,"o":"m 739 972 l 739 732 l 554 732 l 554 796 l 383 796 b 232 653 290 796 232 736 b 383 510 232 569 290 510 l 739 510 l 739 0 l 554 0 l 554 333 l 418 333 l 229 0 l 21 0 l 226 361 b 40 653 106 411 40 522 b 379 972 40 831 163 972 l 554 972 "},"б":{"ha":715,"x_min":0,"x_max":0,"o":"m 375 651 b 674 331 564 651 674 524 b 356 -10 674 138 549 -10 b 21 385 138 -10 21 144 b 289 944 21 575 32 785 b 554 1086 422 1028 475 1021 l 647 953 b 371 811 550 872 513 889 b 181 568 267 754 207 690 b 375 651 224 613 301 651 m 343 158 b 493 331 443 158 493 231 b 343 507 493 431 443 507 b 193 331 243 507 193 431 b 343 158 193 231 243 158 "},"в":{"ha":651,"x_min":0,"x_max":0,"o":"m 488 351 b 610 200 500 347 610 306 b 367 0 610 88 521 0 l 42 0 l 42 669 l 350 669 b 568 493 482 669 568 601 b 488 351 568 406 500 360 m 392 464 b 343 513 392 489 376 513 l 228 513 l 228 410 l 343 410 b 392 464 375 410 392 439 m 367 157 b 429 219 406 157 429 183 b 367 278 429 256 406 278 l 228 278 l 228 157 l 367 157 "},"г":{"ha":510,"x_min":0,"x_max":0,"o":"m 468 493 l 226 493 l 226 0 l 42 0 l 42 669 l 468 669 "},"д":{"ha":800,"x_min":0,"x_max":0,"o":"m 744 176 l 744 -164 l 565 -164 l 565 0 l 200 0 l 200 -164 l 21 -164 l 21 176 l 88 176 b 172 669 151 299 172 443 l 646 669 l 646 176 m 461 176 l 461 493 l 333 493 b 269 176 325 379 308 275 "},"ё":{"ha":697,"x_min":0,"x_max":0,"o":"m 203 742 b 106 840 149 742 106 786 b 203 938 106 893 149 938 b 300 840 257 938 300 893 b 203 742 300 786 257 742 m 468 742 b 371 840 414 742 371 786 b 468 938 371 893 414 938 b 565 840 522 938 565 893 b 468 742 565 786 522 742 m 204 268 b 353 158 225 203 276 158 b 476 218 407 158 450 181 l 629 143 b 353 -11 574 50 475 -11 b 14 335 160 -11 14 142 b 346 679 14 528 153 679 b 656 335 538 679 656 528 b 650 268 656 311 654 289 m 346 511 b 203 397 268 511 219 464 l 481 397 b 346 511 465 464 424 511 "},"ж":{"ha":1090,"x_min":0,"x_max":0,"o":"m 682 246 l 628 246 l 628 0 l 442 0 l 442 246 l 386 246 l 213 0 l 0 0 l 238 335 l 6 669 l 214 669 l 388 422 l 442 422 l 442 669 l 628 669 l 628 422 l 681 422 l 856 669 l 1064 669 l 831 335 l 1056 0 l 843 0 "},"з":{"ha":576,"x_min":0,"x_max":0,"o":"m 400 343 b 542 192 463 329 542 281 b 275 -10 542 86 458 -10 b -7 111 150 -10 28 56 l 108 201 b 257 146 138 171 189 146 b 363 217 336 146 364 183 b 247 282 363 244 349 282 l 176 282 l 176 399 l 242 399 b 340 463 318 399 340 432 b 243 522 340 492 311 522 b 110 468 176 522 135 492 l 17 578 b 267 679 60 625 160 679 b 513 499 413 679 513 613 b 400 343 513 429 471 372 "},"и":{"ha":693,"x_min":0,"x_max":0,"o":"m 624 669 l 624 0 l 439 0 l 439 364 l 218 0 l 42 0 l 42 669 l 226 669 l 226 306 l 447 669 "},"й":{"ha":693,"x_min":0,"x_max":0,"o":"m 339 750 b 140 950 228 750 140 838 l 264 950 b 339 875 264 908 299 875 b 414 950 381 875 414 908 l 539 950 b 339 750 539 838 451 750 m 624 669 l 624 0 l 439 0 l 439 364 l 218 0 l 42 0 l 42 669 l 226 669 l 226 306 l 447 669 "},"к":{"ha":696,"x_min":0,"x_max":0,"o":"m 303 246 l 226 246 l 226 0 l 42 0 l 42 669 l 226 669 l 226 422 l 301 422 l 461 669 l 669 669 l 451 335 l 675 0 l 463 0 "},"л":{"ha":736,"x_min":0,"x_max":0,"o":"m 667 669 l 667 0 l 482 0 l 482 493 l 351 493 b 0 0 335 32 242 -43 l 40 172 b 174 669 174 136 174 356 "},"м":{"ha":874,"x_min":0,"x_max":0,"o":"m 804 669 l 804 0 l 619 0 l 619 374 l 472 169 l 375 169 l 226 374 l 226 0 l 42 0 l 42 669 l 219 669 l 424 381 l 628 669 "},"н":{"ha":694,"x_min":0,"x_max":0,"o":"m 625 669 l 625 0 l 440 0 l 440 246 l 226 246 l 226 0 l 42 0 l 42 669 l 226 669 l 226 424 l 440 424 l 440 669 "},"п":{"ha":678,"x_min":0,"x_max":0,"o":"m 608 669 l 608 0 l 424 0 l 424 493 l 226 493 l 226 0 l 42 0 l 42 669 "},"т":{"ha":615,"x_min":0,"x_max":0,"o":"m 560 493 l 386 493 l 386 0 l 201 0 l 201 493 l 28 493 l 28 669 l 560 669 "},"ф":{"ha":926,"x_min":0,"x_max":0,"o":"m 885 335 b 539 -4 885 133 743 21 l 539 -303 l 353 -303 l 353 -4 b 7 335 149 21 7 133 b 353 674 7 536 149 649 l 353 972 l 539 972 l 539 674 b 885 335 743 649 885 536 m 188 335 b 353 164 188 226 250 179 l 353 506 b 188 335 250 490 188 443 m 539 164 b 704 335 642 179 704 226 b 539 506 704 443 642 490 l 539 164 "},"ц":{"ha":742,"x_min":0,"x_max":0,"o":"m 686 176 l 686 -165 l 507 -165 l 507 0 l 42 0 l 42 669 l 226 669 l 226 176 l 419 176 l 419 669 l 604 669 l 604 176 "},"ч":{"ha":656,"x_min":0,"x_max":0,"o":"m 586 669 l 586 0 l 400 0 l 400 213 b 264 189 364 197 310 189 b 28 465 104 189 28 282 l 28 669 l 213 669 l 213 478 b 263 361 213 415 222 381 b 400 364 299 343 371 353 l 400 669 "},"ш":{"ha":972,"x_min":0,"x_max":0,"o":"m 903 669 l 903 0 l 42 0 l 42 669 l 226 669 l 226 176 l 379 176 l 379 669 l 565 669 l 565 176 l 718 176 l 718 669 "},"щ":{"ha":1049,"x_min":0,"x_max":0,"o":"m 993 176 l 993 -165 l 814 -165 l 814 0 l 42 0 l 42 669 l 226 669 l 226 176 l 381 176 l 381 669 l 565 669 l 565 176 l 718 176 l 718 669 l 903 669 l 903 176 "},"ъ":{"ha":763,"x_min":0,"x_max":0,"o":"m 456 458 b 721 229 622 458 721 367 b 456 0 721 92 622 0 l 164 0 l 164 503 l 14 503 l 14 669 l 349 669 l 349 458 l 456 458 m 456 157 b 544 229 511 157 544 186 b 456 303 544 272 511 303 l 349 303 l 349 157 l 456 157 "},"ы":{"ha":922,"x_min":0,"x_max":0,"o":"m 853 669 l 853 0 l 668 0 l 668 669 m 333 458 b 599 229 500 458 599 367 b 333 0 599 92 500 0 l 42 0 l 42 669 l 228 669 l 228 458 l 333 458 m 333 157 b 422 229 389 157 422 186 b 333 303 422 272 389 303 l 228 303 l 228 157 l 333 157 "},"ь":{"ha":640,"x_min":0,"x_max":0,"o":"m 333 458 b 599 229 500 458 599 367 b 333 0 599 92 500 0 l 42 0 l 42 669 l 226 669 l 226 458 l 333 458 m 333 157 b 422 229 389 157 422 186 b 333 303 422 272 389 303 l 226 303 l 226 157 l 333 157 "},"э":{"ha":671,"x_min":0,"x_max":0,"o":"m 290 679 b 629 335 483 679 629 528 b 290 -11 629 142 483 -11 b 14 143 168 -11 69 50 l 167 218 b 290 158 194 181 236 158 b 436 263 364 158 415 200 l 219 263 l 219 407 l 436 407 b 290 511 415 469 364 511 b 167 451 236 511 194 488 l 14 525 b 290 679 69 618 168 679 "},"ю":{"ha":1010,"x_min":0,"x_max":0,"o":"m 629 679 b 968 335 822 679 968 528 b 629 -11 968 142 822 -11 b 301 246 467 -11 338 97 l 226 246 l 226 0 l 42 0 l 42 669 l 226 669 l 226 422 l 301 422 b 629 679 338 572 467 679 m 629 158 b 788 335 729 158 788 235 b 629 511 788 435 729 511 b 471 335 529 511 471 435 b 629 158 471 235 529 158 "},"я":{"ha":640,"x_min":0,"x_max":0,"o":"m 571 669 l 571 0 l 386 0 l 386 193 l 304 193 l 194 0 l 0 0 l 131 229 b 14 432 56 269 14 343 b 281 669 14 568 113 669 m 386 358 l 386 504 l 281 504 b 196 432 225 504 196 475 b 281 358 196 388 225 358 "},"І":{"ha":338,"x_min":0,"x_max":0,"o":"m 76 679 l 261 679 l 261 0 l 76 0 m 261 972 l 261 815 l 76 815 l 76 972 "},"і":{"ha":318,"x_min":0,"x_max":0,"o":"m 146 763 b 42 865 88 763 42 808 b 146 969 42 924 88 969 b 249 865 203 969 249 924 b 146 763 249 808 203 763 m 53 669 l 238 669 l 238 0 l 53 0 "},"Ѕ":{"ha":807,"x_min":0,"x_max":0,"o":"m 439 585 b 772 282 628 528 772 461 b 408 -17 772 121 660 -19 b 338 -12 385 -17 361 -15 l 400 171 b 575 274 507 175 575 218 b 369 406 575 333 532 357 b 54 700 144 474 54 557 b 397 981 54 828 147 981 b 518 964 439 981 479 975 l 404 797 b 394 797 401 797 397 797 b 250 707 304 797 250 761 b 439 585 250 661 289 631 m 197 290 b 264 206 204 263 221 232 l 200 29 b 28 225 104 74 43 144 "},"ѕ":{"ha":575,"x_min":0,"x_max":0,"o":"m 336 410 b 546 193 493 361 550 294 b 279 -10 542 72 433 -10 b -7 150 139 -10 15 68 l 128 222 b 247 157 142 188 200 160 b 351 203 297 154 353 167 b 225 276 350 240 318 244 b 19 488 79 328 15 378 b 272 678 24 581 99 678 b 519 513 433 678 510 574 l 378 472 b 297 531 371 494 349 526 b 210 483 226 536 208 501 b 336 410 211 458 231 442 "},"ј":{"ha":307,"x_min":0,"x_max":0,"o":"m 147 763 b 44 865 90 763 44 808 b 147 969 44 924 90 969 b 251 865 204 969 251 924 b 147 763 251 808 204 763 m 56 669 l 240 669 l 240 -8 b 3 -314 240 -207 169 -314 b -125 -279 -42 -314 -86 -300 l -72 -129 b -29 -137 -60 -133 -46 -137 b 56 -12 10 -137 56 -119 "},"Ј":{"ha":613,"x_min":0,"x_max":0,"o":"m 536 679 l 536 332 b 253 -11 536 86 422 -11 b 14 93 142 -11 60 40 l 122 224 b 242 169 139 204 178 167 b 351 311 306 172 351 221 l 351 679 m 536 972 l 536 815 l 351 815 l 351 972 "}," ":{"ha":361,"x_min":0,"x_max":0,"o":""},".":{"ha":293,"x_min":0,"x_max":0,"o":"m 139 175 b 238 78 193 175 238 132 b 139 -19 238 24 193 -19 b 42 78 86 -19 42 24 b 139 175 42 132 86 175 "},",":{"ha":264,"x_min":0,"x_max":0,"o":"m 236 81 l 119 -161 l 0 -161 l 56 81 "},"!":{"ha":363,"x_min":0,"x_max":0,"o":"m 117 242 l 85 972 l 278 972 l 246 242 m 182 175 b 279 78 236 175 279 132 b 182 -19 279 24 236 -19 b 83 78 128 -19 83 24 b 182 175 83 132 128 175 "},"?":{"ha":593,"x_min":0,"x_max":0,"o":"m 288 981 b 525 601 513 981 600 794 b 400 404 496 526 447 465 b 315 242 350 339 317 307 l 158 242 b 267 501 160 374 214 435 b 357 635 308 556 335 586 b 283 813 400 731 357 810 b 168 699 218 814 181 761 l 14 732 b 288 981 36 868 132 981 m 236 175 b 333 78 290 175 333 132 b 236 -19 333 24 290 -19 b 139 78 182 -19 139 24 b 236 175 139 132 182 175 "},":":{"ha":376,"x_min":0,"x_max":0,"o":"m 168 514 b 69 613 114 514 69 558 b 168 710 69 665 114 710 b 265 613 221 710 265 665 b 168 514 265 558 221 514 m 168 175 b 265 78 221 175 265 132 b 168 -19 265 24 221 -19 b 69 78 114 -19 69 24 b 168 175 69 132 114 175 "},";":{"ha":376,"x_min":0,"x_max":0,"o":"m 76 81 l 256 81 l 140 -161 l 19 -161 m 168 514 b 71 613 114 514 71 558 b 168 710 71 665 114 710 b 265 613 222 710 265 665 b 168 514 265 558 222 514 "},"#":{"ha":994,"x_min":0,"x_max":0,"o":"m 756 563 l 719 392 l 914 392 l 882 232 l 686 232 l 638 0 l 474 0 l 522 232 l 365 232 l 317 0 l 153 0 l 201 232 l 14 232 l 46 392 l 235 392 l 271 563 l 65 563 l 99 722 l 304 722 l 357 972 l 521 972 l 468 722 l 625 722 l 678 972 l 842 972 l 789 722 l 967 722 l 933 563 m 592 563 l 435 563 l 399 392 l 556 392 "},"$":{"ha":814,"x_min":0,"x_max":0,"o":"m 472 1115 l 472 974 b 725 763 593 953 701 878 l 561 701 b 399 797 549 763 469 796 b 250 707 321 799 250 771 b 439 585 250 661 286 632 b 772 282 631 526 772 463 b 472 -14 772 133 676 4 l 472 -140 l 319 -140 l 319 -7 b 28 225 171 19 50 110 l 197 290 b 401 171 215 217 300 171 b 575 275 514 171 575 215 b 369 406 575 333 528 358 b 54 700 146 472 54 557 b 319 975 54 813 128 946 l 319 1115 "},"¢":{"ha":699,"x_min":0,"x_max":0,"o":"m 381 160 b 504 218 435 160 476 181 l 657 144 b 444 -4 611 68 538 14 l 444 -140 l 283 -140 l 283 4 b 42 336 140 46 42 176 b 283 665 42 494 140 624 l 283 810 l 444 810 l 444 674 b 657 525 538 656 611 601 l 504 453 b 381 511 476 489 435 511 b 224 336 281 511 224 436 b 381 160 224 236 281 160 "},"€":{"ha":1097,"x_min":0,"x_max":0,"o":"m 768 507 l 28 507 l 110 642 l 190 642 b 640 981 247 842 417 981 b 1043 753 819 981 963 890 l 875 669 b 640 796 828 747 747 796 b 390 642 521 796 433 736 l 850 642 m 640 174 b 875 300 747 174 828 222 l 1043 217 b 640 -11 963 78 819 -11 b 192 325 418 -11 250 128 l 28 325 l 110 458 l 756 458 l 682 325 l 392 325 b 640 174 436 233 522 174 "},"£":{"ha":771,"x_min":0,"x_max":0,"o":"m 564 340 l 65 340 l 65 508 l 158 508 l 158 586 b 453 978 158 865 276 978 b 718 776 592 978 686 879 l 565 704 b 457 797 544 753 513 797 b 343 607 393 797 343 761 l 343 508 l 564 508 m 729 176 l 729 0 l 42 0 l 42 176 "},"¥":{"ha":917,"x_min":0,"x_max":0,"o":"m 590 439 l 744 439 l 744 306 l 174 306 l 174 439 l 328 439 l 29 972 l 240 972 l 458 568 l 676 972 l 889 972 m 744 265 l 744 131 l 551 131 l 551 0 l 367 0 l 367 131 l 174 131 l 174 265 "},"¤":{"ha":883,"x_min":0,"x_max":0,"o":"m 739 496 b 700 347 739 442 725 392 l 828 222 l 721 113 l 593 239 b 442 197 549 213 496 197 b 290 239 386 197 335 213 l 163 113 l 56 222 l 183 347 b 143 496 157 392 143 442 b 183 644 143 550 157 600 l 56 769 l 163 879 l 290 753 b 442 794 335 779 386 794 b 593 753 496 794 549 779 l 721 879 l 828 769 l 700 644 b 739 496 725 600 739 550 m 296 496 b 442 350 296 415 361 350 b 586 496 521 350 586 415 b 442 642 586 576 521 642 b 296 496 361 642 296 576 "},"%":{"ha":994,"x_min":0,"x_max":0,"o":"m 446 781 b 236 579 446 669 347 579 b 28 781 126 579 28 669 b 236 981 28 890 126 981 b 446 781 347 981 446 890 m 164 781 b 236 708 164 739 192 708 b 308 781 282 708 308 739 b 236 853 308 822 282 853 b 164 781 192 853 164 822 m 743 392 b 953 190 854 392 953 301 b 743 -10 953 79 854 -10 b 535 190 633 -10 535 79 b 743 392 535 301 633 392 m 743 118 b 815 190 789 118 815 149 b 743 263 815 232 789 263 b 671 190 699 263 671 232 b 743 118 671 149 699 118 m 886 972 l 278 0 l 99 0 l 706 972 "},"^":{"ha":608,"x_min":0,"x_max":0,"o":"m 422 586 l 304 818 l 186 586 l 14 586 l 221 972 l 388 972 l 594 586 "},"‰":{"ha":1476,"x_min":0,"x_max":0,"o":"m 446 781 b 236 579 446 669 347 579 b 28 781 126 579 28 669 b 236 981 28 890 126 981 b 446 781 347 981 446 890 m 164 781 b 236 708 164 739 192 708 b 308 781 282 708 308 739 b 236 853 308 822 282 853 b 164 781 192 853 164 822 m 743 392 b 953 190 854 392 953 301 b 743 -10 953 79 854 -10 b 535 190 633 -10 535 79 b 743 392 535 301 633 392 m 743 118 b 815 190 789 118 815 149 b 743 263 815 232 789 263 b 671 190 699 263 671 232 b 743 118 671 149 699 118 m 886 972 l 278 0 l 99 0 l 706 972 m 1225 392 b 1435 190 1336 392 1435 301 b 1225 -10 1435 79 1336 -10 b 1017 190 1115 -10 1017 79 b 1225 392 1017 301 1115 392 m 1225 118 b 1297 190 1271 118 1297 149 b 1225 263 1297 232 1271 263 b 1153 190 1181 263 1153 232 b 1225 118 1153 149 1181 118 "},"&":{"ha":986,"x_min":0,"x_max":0,"o":"m 965 60 l 849 -68 l 735 33 b 397 -117 638 -65 525 -112 b 99 1 294 -121 175 -93 b 31 265 42 71 19 167 b 214 583 47 408 143 518 b 186 661 201 610 193 635 b 203 838 172 724 178 785 b 421 981 242 925 328 981 b 667 714 604 981 667 814 l 503 708 b 421 808 503 754 481 814 b 424 579 351 801 332 690 b 707 292 508 474 611 379 b 743 401 726 335 739 375 l 910 375 b 839 172 901 319 882 246 m 397 54 b 607 149 486 58 553 94 b 315 440 510 236 408 335 b 201 246 268 396 211 325 b 236 113 196 193 208 144 b 397 54 269 71 344 51 "},"*":{"ha":457,"x_min":0,"x_max":0,"o":"m 339 765 l 443 722 l 372 600 l 283 669 l 299 557 l 158 557 l 174 669 l 83 600 l 14 722 l 118 765 l 14 807 l 83 929 l 174 860 l 158 972 l 299 972 l 283 860 l 372 929 l 443 807 "},"(":{"ha":432,"x_min":0,"x_max":0,"o":"m 418 957 b 393 -160 167 657 156 136 l 275 -254 b 57 424 133 -79 49 169 b 301 1054 65 667 161 889 l 418 957 "},")":{"ha":446,"x_min":0,"x_max":0,"o":"m 375 424 b 157 -254 383 169 299 -79 l 39 -160 b 14 957 276 136 265 657 l 131 1054 b 375 424 271 889 367 667 "},"-":{"ha":599,"x_min":0,"x_max":0,"o":"m 522 501 l 522 349 l 63 349 l 63 501 "},"–":{"ha":678,"x_min":0,"x_max":0,"o":"m 601 501 l 601 349 l 63 349 l 63 501 "},"—":{"ha":799,"x_min":0,"x_max":0,"o":"m 722 501 l 722 349 l 63 349 l 63 501 "},"_":{"ha":767,"x_min":0,"x_max":0,"o":"m 753 -12 l 753 -165 l 14 -165 l 14 -12 "},"/":{"ha":592,"x_min":0,"x_max":0,"o":"m 564 1042 l 147 -214 l -14 -214 l 404 1042 "},"\\":{"ha":592,"x_min":0,"x_max":0,"o":"m 606 -214 l 444 -214 l 28 1042 l 189 1042 "},"«":{"ha":728,"x_min":0,"x_max":0,"o":"m 243 371 l 399 153 l 211 153 l 56 371 l 211 589 l 399 589 m 518 371 l 672 153 l 485 153 l 331 371 l 485 589 l 672 589 "},"»":{"ha":728,"x_min":0,"x_max":0,"o":"m 672 371 l 517 153 l 329 153 l 485 371 l 329 589 l 517 589 m 397 371 l 243 153 l 56 153 l 210 371 l 56 589 l 243 589 "},"[":{"ha":435,"x_min":0,"x_max":0,"o":"m 236 901 l 236 -74 l 393 -74 l 393 -214 l 83 -214 l 83 1042 l 393 1042 l 393 901 "},"]":{"ha":435,"x_min":0,"x_max":0,"o":"m 351 -214 l 42 -214 l 42 -74 l 199 -74 l 199 901 l 42 901 l 42 1042 l 351 1042 "},"|":{"ha":375,"x_min":0,"x_max":0,"o":"m 264 1042 l 264 -214 l 111 -214 l 111 1042 "},"¦":{"ha":375,"x_min":0,"x_max":0,"o":"m 264 1042 l 264 564 l 111 564 l 111 1042 m 111 264 l 264 264 l 264 -214 l 111 -214 "},"+":{"ha":678,"x_min":0,"x_max":0,"o":"m 601 349 l 408 349 l 408 156 l 256 156 l 256 349 l 63 349 l 63 501 l 256 501 l 256 694 l 408 694 l 408 501 l 601 501 "},"=":{"ha":692,"x_min":0,"x_max":0,"o":"m 69 382 l 608 382 l 608 229 l 69 229 m 608 608 l 608 456 l 69 456 l 69 608 "},"<":{"ha":608,"x_min":0,"x_max":0,"o":"m 525 578 l 239 451 l 525 325 l 525 157 l 49 367 l 49 535 l 525 746 "},">":{"ha":614,"x_min":0,"x_max":0,"o":"m 63 746 l 538 535 l 538 367 l 63 157 l 63 325 l 349 451 l 63 578 "},"÷":{"ha":678,"x_min":0,"x_max":0,"o":"m 601 501 l 601 349 l 63 349 l 63 501 m 332 568 b 235 665 278 568 235 611 b 332 763 235 719 278 763 b 429 665 386 763 429 719 b 332 568 429 611 386 568 m 332 283 b 429 185 386 283 429 239 b 332 88 429 132 386 88 b 235 185 278 88 235 132 b 332 283 235 239 278 283 "},"×":{"ha":665,"x_min":0,"x_max":0,"o":"m 433 425 l 589 269 l 482 161 l 326 317 l 169 161 l 63 269 l 218 425 l 63 582 l 169 689 l 326 533 l 482 689 l 589 582 "},"~":{"ha":756,"x_min":0,"x_max":0,"o":"m 700 474 b 336 365 650 339 535 278 b 156 336 242 406 201 394 l 35 404 b 390 492 118 529 231 565 b 565 524 504 439 543 468 "},"≈":{"ha":760,"x_min":0,"x_max":0,"o":"m 336 458 b 157 429 243 500 203 489 l 35 499 b 390 586 119 624 231 660 b 567 618 506 533 544 563 l 700 568 b 336 458 651 433 536 372 m 704 349 b 340 240 656 214 539 153 b 161 211 247 281 206 269 l 39 279 b 394 367 122 404 235 440 b 571 399 510 314 549 343 "},"≤":{"ha":614,"x_min":0,"x_max":0,"o":"m 63 435 l 63 603 l 538 813 l 538 644 l 251 518 l 538 392 l 538 224 m 538 174 l 538 21 l 63 21 l 63 174 "},"≥":{"ha":614,"x_min":0,"x_max":0,"o":"m 63 224 l 63 392 l 349 518 l 63 644 l 63 813 l 539 603 l 539 435 m 539 174 l 539 21 l 63 21 l 63 174 "},"°":{"ha":501,"x_min":0,"x_max":0,"o":"m 250 983 b 460 782 361 983 460 893 b 250 581 460 671 361 581 b 42 782 140 581 42 671 b 250 983 42 893 140 983 m 250 710 b 322 782 296 710 322 740 b 250 854 322 824 296 854 b 178 782 206 854 178 824 b 250 710 178 740 206 710 "},"≠":{"ha":678,"x_min":0,"x_max":0,"o":"m 435 456 l 394 382 l 601 382 l 601 229 l 308 229 l 239 106 l 72 106 l 142 229 l 63 229 l 63 382 l 228 382 l 269 456 l 63 456 l 63 608 l 356 608 l 425 732 l 590 732 l 521 608 l 601 608 l 601 456 "},"†":{"ha":582,"x_min":0,"x_max":0,"o":"m 540 606 l 368 606 l 368 0 l 215 0 l 215 606 l 42 606 l 42 758 l 215 758 l 215 972 l 368 972 l 368 758 l 540 758 "},"‡":{"ha":582,"x_min":0,"x_max":0,"o":"m 368 606 l 368 365 l 540 365 l 540 213 l 368 213 l 368 0 l 215 0 l 215 213 l 42 213 l 42 365 l 215 365 l 215 606 l 42 606 l 42 758 l 215 758 l 215 972 l 368 972 l 368 758 l 540 758 l 540 606 "},"{":{"ha":440,"x_min":0,"x_max":0,"o":"m 278 735 b 186 428 278 579 249 479 b 278 121 249 378 278 278 b 399 -42 278 -15 299 -42 l 399 -210 b 129 74 254 -210 129 -169 b 56 368 129 264 138 368 l 56 489 b 129 783 138 489 129 592 b 399 1067 129 1026 254 1067 l 399 897 b 278 735 299 897 278 872 "},"}":{"ha":440,"x_min":0,"x_max":0,"o":"m 313 783 b 385 489 313 592 304 489 l 385 368 b 313 74 304 368 313 264 b 42 -210 313 -169 186 -210 l 42 -42 b 164 121 143 -42 164 -15 b 256 428 164 278 193 378 b 164 735 193 479 164 579 b 42 897 164 872 143 897 l 42 1067 b 313 783 186 1067 313 1026 "},"§":{"ha":800,"x_min":0,"x_max":0,"o":"m 742 326 b 646 146 735 253 697 190 b 675 0 668 110 678 64 b 419 -260 671 -150 574 -260 b 133 -58 274 -260 165 -167 l 293 -15 b 407 -92 306 -53 346 -92 b 511 7 478 -92 510 -44 b 333 144 514 75 457 82 b 58 485 94 264 44 365 b 156 668 65 561 104 624 b 125 813 133 706 122 751 b 397 1072 129 963 243 1072 b 667 871 543 1072 635 979 l 507 826 b 393 904 494 865 458 904 b 289 810 322 904 290 860 b 467 668 288 744 343 731 b 742 326 706 547 756 447 m 225 471 b 393 300 218 406 286 356 b 513 243 436 278 476 258 b 575 342 547 263 571 307 b 407 513 582 407 513 457 b 289 571 364 535 329 551 b 225 471 253 551 229 506 "},"¶":{"ha":786,"x_min":0,"x_max":0,"o":"m 744 819 l 688 819 l 688 -214 l 531 -214 l 531 819 l 447 819 l 447 -214 l 290 -214 l 290 519 b 28 746 149 524 28 597 b 301 972 28 899 174 972 l 744 972 "},"©":{"ha":1115,"x_min":0,"x_max":0,"o":"m 574 615 b 457 485 500 615 457 560 b 574 356 457 411 500 356 b 664 399 614 356 644 372 l 776 344 b 574 231 736 276 664 231 b 324 485 431 231 324 343 b 574 740 324 628 431 740 b 776 626 664 740 736 694 l 664 571 b 574 615 644 599 614 615 m 558 988 b 1060 485 835 988 1060 763 b 558 -18 1060 208 835 -18 b 56 485 281 -18 56 208 b 558 988 56 763 281 988 m 558 124 b 919 485 757 124 919 285 b 558 847 919 685 757 847 b 196 485 358 847 196 685 b 558 124 196 285 358 124 "},"®":{"ha":1117,"x_min":0,"x_max":0,"o":"m 776 558 b 694 414 776 494 747 443 l 788 250 l 649 250 l 569 389 l 510 389 l 510 250 l 378 250 l 378 729 l 586 729 b 776 558 706 729 776 657 m 510 506 l 586 506 b 650 558 626 506 650 528 b 586 611 650 590 626 611 l 510 611 m 558 988 b 1061 485 836 988 1061 763 b 558 -18 1061 208 836 -18 b 56 485 281 -18 56 208 b 558 988 56 763 281 988 m 558 124 b 921 485 758 124 921 285 b 558 847 921 685 758 847 b 196 485 358 847 196 685 b 558 124 196 285 358 124 "},"¡":{"ha":307,"x_min":0,"x_max":0,"o":"m 218 439 l 250 -293 l 57 -293 l 89 439 m 154 556 b 56 653 100 556 56 599 b 154 751 56 707 100 751 b 251 653 208 751 251 707 b 154 556 251 599 208 556 "},"¿":{"ha":565,"x_min":0,"x_max":0,"o":"m 551 -53 b 278 -301 531 -189 433 -301 b 40 78 53 -301 -35 -115 b 165 275 69 153 118 214 b 250 439 215 340 250 372 l 407 439 b 300 178 406 307 353 244 b 208 44 257 124 231 93 b 282 -133 165 -51 208 -131 b 397 -19 347 -135 385 -82 m 329 556 b 232 653 275 556 232 599 b 329 751 232 707 275 751 b 426 653 383 751 426 707 b 329 556 426 599 383 556 "},"”":{"ha":415,"x_min":0,"x_max":0,"o":"m 388 981 l 290 747 l 204 747 l 240 981 m 50 981 l 197 981 l 100 747 l 14 747 "},"“":{"ha":415,"x_min":0,"x_max":0,"o":"m 111 981 l 197 981 l 161 747 l 14 747 m 388 981 l 351 747 l 204 747 l 301 981 "},"\"":{"ha":460,"x_min":0,"x_max":0,"o":"m 56 981 l 213 981 l 181 747 l 88 747 m 404 981 l 371 747 l 279 747 l 247 981 "},"±":{"ha":678,"x_min":0,"x_max":0,"o":"m 63 197 l 601 197 l 601 44 l 63 44 m 601 606 l 601 453 l 408 453 l 408 260 l 256 260 l 256 453 l 63 453 l 63 606 l 256 606 l 256 799 l 408 799 l 408 606 "},"@":{"ha":1350,"x_min":0,"x_max":0,"o":"m 1293 393 b 1017 -56 1308 133 1193 -68 b 849 88 958 -51 885 -14 b 658 -1 803 33 738 -1 b 363 314 481 -1 363 138 b 658 631 363 490 481 631 b 821 568 724 631 778 606 l 821 604 l 990 604 l 990 300 b 1038 111 990 194 993 114 b 1125 374 1094 106 1136 235 b 678 756 1099 725 778 756 b 238 414 494 756 285 660 b 374 -26 203 232 258 69 b 854 -64 492 -125 676 -135 l 914 -221 b 265 -156 797 -268 506 -354 b 71 444 101 -21 22 203 b 678 925 132 743 361 925 b 1293 393 922 925 1271 783 m 676 153 b 821 314 768 153 821 222 b 676 475 821 406 768 475 b 532 314 585 475 532 406 b 676 153 532 222 585 153 "},"ß":{"ha":703,"x_min":0,"x_max":0,"o":"m 499 526 b 661 274 589 489 661 397 b 349 -11 661 132 554 -11 b 293 -11 329 -11 313 -11 l 293 151 b 303 151 296 151 300 151 b 488 294 432 151 488 219 b 300 435 488 371 439 435 l 293 435 l 293 588 l 300 588 b 436 708 404 588 436 653 b 325 821 436 774 393 821 b 206 675 264 821 206 785 l 206 0 l 42 0 l 42 669 b 328 981 42 900 179 981 b 606 728 499 981 606 875 b 499 526 604 638 554 560 "},"ẞ":{"ha":767,"x_min":0,"x_max":0,"o":"m 504 599 b 725 313 644 553 725 442 b 383 -11 725 135 617 -11 b 356 -11 375 -11 365 -11 l 356 163 b 375 163 364 163 368 163 b 549 308 481 163 543 226 b 356 472 554 394 497 471 l 356 621 l 471 815 l 400 815 b 239 600 289 815 239 754 l 239 0 l 76 0 l 76 611 b 396 972 76 868 181 972 l 629 972 l 629 815 l 504 599 "},"œ":{"ha":1203,"x_min":0,"x_max":0,"o":"m 711 268 b 860 158 731 203 783 158 b 982 218 914 158 956 181 l 1135 143 b 860 -11 1079 50 981 -11 b 610 97 758 -11 671 31 b 360 -11 549 31 461 -11 b 21 335 167 -11 21 142 b 360 679 21 528 167 679 b 607 574 460 679 547 639 b 851 679 667 639 751 679 b 1161 335 1044 679 1161 528 b 1157 268 1161 311 1160 289 m 851 511 b 708 397 774 511 725 464 l 986 397 b 851 511 971 464 929 511 m 360 158 b 518 335 460 158 518 235 b 360 511 518 435 460 511 b 201 335 260 511 201 435 b 360 158 201 235 260 158 "},"æ":{"ha":1190,"x_min":0,"x_max":0,"o":"m 697 268 b 846 158 718 203 769 158 b 969 218 900 158 943 181 l 1122 143 b 846 -11 1067 50 968 -11 b 557 138 753 -11 633 22 b 222 -18 479 4 346 -31 b 14 158 103 -6 19 57 b 256 386 14 304 114 356 b 424 449 368 411 415 411 b 325 528 433 489 390 531 b 214 449 268 526 225 500 l 60 482 b 338 679 72 569 171 679 b 581 557 440 679 535 646 b 839 679 640 632 731 679 b 1149 335 1031 679 1149 528 b 1143 268 1149 311 1147 289 m 428 294 b 279 260 428 294 367 282 b 204 164 211 242 192 197 b 299 132 215 133 257 125 b 428 274 371 143 422 200 m 839 511 b 696 397 761 511 713 464 l 974 397 b 839 511 958 464 917 511 "},"Æ":{"ha":1371,"x_min":0,"x_max":0,"o":"m 1315 0 l 669 0 l 669 243 l 347 243 l 222 0 l 14 0 l 525 972 l 1307 972 l 1307 796 l 854 796 l 854 574 l 1264 574 l 1264 397 l 854 397 l 854 176 l 1315 176 m 438 421 l 669 421 l 669 796 l 629 796 "},"Đ":{"ha":1004,"x_min":0,"x_max":0,"o":"m 472 563 l 472 410 l 324 410 l 324 176 l 447 176 b 778 486 651 176 778 300 b 447 794 778 671 651 794 l 139 794 l 139 972 l 451 972 b 963 486 774 972 963 769 b 451 0 963 201 774 0 l 139 0 l 139 410 l 14 410 l 14 563 "},"Œ":{"ha":1438,"x_min":0,"x_max":0,"o":"m 1382 0 l 736 0 l 736 43 b 514 -11 671 8 596 -11 b 42 485 235 -11 42 206 b 514 981 42 764 235 981 b 736 928 596 981 671 961 l 736 972 l 1374 972 l 1374 796 l 921 796 l 921 574 l 1331 574 l 1331 397 l 921 397 l 921 176 l 1382 176 m 514 175 b 736 282 611 175 688 215 l 736 689 b 514 796 688 754 611 796 b 231 485 336 796 231 663 b 514 175 231 308 336 175 "},"đ":{"ha":771,"x_min":0,"x_max":0,"o":"m 778 726 l 696 726 l 696 0 l 511 0 l 511 57 b 333 -11 464 15 404 -11 b 14 335 140 -11 14 142 b 333 679 14 528 140 679 b 511 611 404 679 464 653 l 511 726 l 392 726 l 392 879 l 511 879 l 511 972 l 696 972 l 696 879 l 778 879 m 353 158 b 511 335 453 158 511 235 b 353 511 511 435 453 511 b 194 335 253 511 194 435 b 353 158 194 235 253 158 "},"ð":{"ha":740,"x_min":0,"x_max":0,"o":"m 499 944 b 689 322 632 819 728 576 b 342 -11 658 129 539 -11 b 14 335 149 -11 14 142 b 342 679 14 528 149 679 b 514 626 410 679 472 660 b 390 833 493 707 446 781 l 286 726 l 176 833 l 261 919 b 124 954 219 938 174 950 l 143 1099 b 369 1032 226 1089 301 1067 l 475 1139 l 583 1032 l 499 944 m 354 158 b 511 335 453 158 511 235 b 354 511 511 435 453 511 b 196 335 254 511 196 435 b 354 158 196 235 254 158 "},"Ð":{"ha":1004,"x_min":0,"x_max":0,"o":"m 472 563 l 472 410 l 324 410 l 324 176 l 447 176 b 778 486 651 176 778 300 b 447 794 778 671 651 794 l 139 794 l 139 972 l 451 972 b 963 486 774 972 963 769 b 451 0 963 201 774 0 l 139 0 l 139 410 l 14 410 l 14 563 "},"Ø":{"ha":1026,"x_min":0,"x_max":0,"o":"m 890 790 b 983 485 950 707 983 601 b 511 -11 983 206 790 -11 b 240 72 407 -11 315 19 l 129 -51 l 15 51 l 132 181 b 40 485 74 264 40 368 b 511 981 40 764 232 981 b 782 899 615 981 707 950 l 894 1024 l 1007 921 m 229 485 b 263 325 229 425 240 371 l 656 760 b 511 796 615 782 567 796 b 229 485 335 796 229 663 m 794 485 b 760 646 794 544 782 600 l 367 211 b 511 175 407 188 456 175 b 794 485 689 175 794 308 "},"ø":{"ha":740,"x_min":0,"x_max":0,"o":"m 640 531 b 699 335 676 475 699 408 b 360 -11 699 142 553 -11 b 190 33 297 -11 239 6 l 114 -51 l 0 51 l 79 138 b 21 335 42 193 21 261 b 360 679 21 528 167 679 b 528 635 422 679 479 664 l 606 721 l 718 618 m 201 335 b 207 281 201 315 203 297 l 408 503 b 360 511 394 508 378 511 b 201 335 260 511 201 435 m 517 335 b 511 389 517 353 515 372 l 310 165 b 360 158 325 161 342 158 b 517 335 460 158 517 235 "},"Þ":{"ha":817,"x_min":0,"x_max":0,"o":"m 435 806 b 775 486 653 806 775 664 b 435 167 775 308 653 167 l 261 167 l 261 0 l 76 0 l 76 972 l 261 972 l 261 806 l 435 806 m 431 343 b 582 486 524 343 582 403 b 431 628 582 569 524 628 l 261 628 l 261 343 l 431 343 "},"þ":{"ha":768,"x_min":0,"x_max":0,"o":"m 404 679 b 726 335 597 679 726 528 b 404 -11 726 142 597 -11 b 226 57 333 -11 272 15 l 226 -303 l 42 -303 l 42 981 l 226 981 l 226 613 b 404 679 272 654 333 679 m 385 158 b 542 335 485 158 542 235 b 385 511 542 435 485 511 b 226 335 285 511 226 435 b 385 158 226 235 285 158 "},"Ł":{"ha":813,"x_min":0,"x_max":0,"o":"m 771 0 l 186 0 l 186 297 l 14 181 l 14 365 l 186 483 l 186 972 l 371 972 l 371 610 l 586 757 l 586 571 l 371 424 l 371 176 l 771 176 "},"ł":{"ha":521,"x_min":0,"x_max":0,"o":"m 507 68 b 310 -11 461 17 392 -14 b 108 269 190 -7 108 54 l 108 369 l 14 306 l 14 490 l 108 556 l 108 1042 l 293 1042 l 293 682 l 388 746 l 388 561 l 293 496 l 293 260 b 354 160 293 214 304 164 b 421 182 383 157 406 169 "},"Ħ":{"ha":951,"x_min":0,"x_max":0,"o":"m 938 682 l 856 682 l 856 0 l 671 0 l 671 397 l 279 397 l 279 0 l 94 0 l 94 682 l 14 682 l 14 835 l 94 835 l 94 972 l 279 972 l 279 835 l 671 835 l 671 972 l 856 972 l 856 835 l 938 835 m 671 682 l 279 682 l 279 574 l 671 574 "},"ħ":{"ha":740,"x_min":0,"x_max":0,"o":"m 422 679 b 671 364 576 679 671 569 l 671 0 l 486 0 l 486 371 b 379 507 486 468 444 507 b 268 364 313 507 268 463 l 268 0 l 82 0 l 82 726 l 0 726 l 0 879 l 82 879 l 82 972 l 268 972 l 268 879 l 386 879 l 386 726 l 268 726 l 268 611 b 422 679 307 653 360 679 "},"Ŋ":{"ha":910,"x_min":0,"x_max":0,"o":"m 833 972 l 833 36 b 596 -269 833 -164 761 -269 b 467 -236 551 -269 507 -256 l 521 -85 b 564 -93 532 -90 546 -93 b 647 8 599 -93 640 -78 l 261 633 l 261 0 l 76 0 l 76 972 l 257 972 l 649 339 l 649 972 "},"ŋ":{"ha":707,"x_min":0,"x_max":0,"o":"m 389 679 b 638 364 543 679 638 569 l 636 0 b 400 -269 628 -176 556 -269 b 272 -236 356 -269 311 -256 l 325 -85 b 368 -93 338 -90 351 -93 b 453 32 407 -93 453 -75 l 453 371 b 346 507 453 468 411 507 b 235 364 279 507 235 463 l 235 0 l 49 0 l 49 669 l 235 669 l 235 611 b 389 679 274 653 326 679 "},"Ŧ":{"ha":792,"x_min":0,"x_max":0,"o":"m 488 794 l 488 614 l 667 614 l 667 461 l 488 461 l 488 0 l 303 0 l 303 461 l 124 461 l 124 614 l 303 614 l 303 794 l 42 794 l 42 972 l 750 972 l 750 794 "},"ŧ":{"ha":524,"x_min":0,"x_max":0,"o":"m 496 56 b 319 -7 457 21 399 -7 b 99 206 178 -7 99 67 l 99 275 l 39 275 l 39 428 l 99 428 l 99 492 l 7 492 l 7 669 l 99 669 l 99 819 l 283 861 l 283 669 l 439 669 l 439 492 l 283 492 l 283 428 l 382 428 l 382 275 l 283 275 l 283 265 b 357 169 283 206 299 169 b 435 197 382 169 408 178 "},"₽":{"ha":918,"x_min":0,"x_max":0,"o":"m 363 0 l 178 0 m 538 972 b 875 653 754 972 875 831 b 538 333 875 475 754 333 l 56 333 l 56 510 l 178 510 l 178 972 l 538 972 m 533 510 b 683 653 625 510 683 569 b 533 794 683 736 625 794 l 363 794 l 363 510 l 533 510 m 614 276 l 614 142 l 363 142 l 363 0 l 178 0 l 178 142 l 56 142 l 56 276 "},"№":{"ha":1418,"x_min":0,"x_max":0,"o":"m 960 521 l 1353 521 l 1353 368 l 960 368 m 1154 581 b 944 781 1043 581 944 669 b 1154 982 944 892 1043 982 b 1363 781 1264 982 1363 892 b 1154 581 1363 669 1264 581 m 1154 853 b 1082 781 1108 853 1082 822 b 1154 708 1082 739 1108 708 b 1226 781 1199 708 1226 739 b 1154 853 1226 822 1199 853 m 649 972 l 833 972 l 833 -11 l 821 -11 l 261 544 l 261 0 l 76 0 l 76 981 l 89 981 l 649 426 "},"Є":{"ha":943,"x_min":0,"x_max":0,"o":"m 385 575 l 631 575 l 631 397 l 385 397 m 514 981 b 917 753 693 981 838 890 l 749 669 b 514 796 701 747 621 796 b 231 485 338 796 231 663 b 514 174 231 307 338 174 b 749 300 621 174 701 222 l 917 217 b 514 -11 838 78 693 -11 b 42 485 235 -11 42 206 b 514 981 42 764 235 981 "},"Ґ":{"ha":646,"x_min":0,"x_max":0,"o":"m 604 1149 l 604 794 l 261 794 l 261 0 l 76 0 l 76 972 l 76 972 l 419 972 l 419 1149 "},"Њ":{"ha":1392,"x_min":0,"x_max":0,"o":"m 1024 574 b 1364 288 1240 574 1364 465 b 1024 0 1364 110 1240 0 l 653 0 l 653 397 l 261 397 l 261 0 l 76 0 l 76 972 l 261 972 l 261 574 l 653 574 l 653 972 l 838 972 l 838 574 l 1024 574 m 1019 176 b 1171 288 1113 176 1171 213 b 1019 397 1171 361 1113 397 l 838 397 l 838 176 l 1019 176 "},"Љ":{"ha":1376,"x_min":0,"x_max":0,"o":"m 1008 639 b 1349 319 1226 639 1349 497 b 1008 0 1349 142 1226 0 l 650 0 l 650 796 l 426 796 b 267 47 426 481 414 160 b 14 -4 199 -4 107 -24 l 46 181 b 150 194 100 168 135 182 b 243 972 263 289 243 657 l 835 972 l 835 639 l 1008 639 m 1006 176 b 1156 319 1097 176 1156 236 b 1006 463 1156 403 1097 463 l 835 463 l 835 176 l 1006 176 "},"Ћ":{"ha":989,"x_min":0,"x_max":0,"o":"m 663 643 b 919 347 822 647 919 558 l 919 0 l 735 0 l 735 347 b 611 463 735 449 678 472 b 488 403 569 456 511 422 l 488 0 l 303 0 l 303 794 l 42 794 l 42 972 l 749 972 l 749 794 l 488 794 l 488 581 b 663 643 513 596 594 642 "},"Ђ":{"ha":969,"x_min":0,"x_max":0,"o":"m 671 643 b 928 347 831 647 928 558 l 928 294 b 690 -11 928 94 856 -11 b 561 22 646 -11 601 3 l 615 174 b 658 165 626 169 640 165 b 742 290 696 165 742 183 l 742 347 b 619 463 742 449 686 472 b 488 400 575 456 508 418 l 488 0 l 303 0 l 303 794 l 42 794 l 42 972 l 749 972 l 749 794 l 488 794 l 488 578 b 671 643 507 590 599 640 "},"Џ":{"ha":854,"x_min":0,"x_max":0,"o":"m 778 0 l 515 0 l 515 -165 l 331 -165 l 331 0 l 76 0 l 76 972 l 261 972 l 261 176 l 593 176 l 593 972 l 778 972 "},"є":{"ha":656,"x_min":0,"x_max":0,"o":"m 353 158 b 475 218 407 158 449 181 l 628 143 b 353 -11 572 50 474 -11 b 14 335 160 -11 14 142 b 353 679 14 528 160 679 b 628 525 474 679 572 618 l 475 451 b 353 511 449 488 407 511 b 206 407 278 511 228 469 l 422 407 l 422 263 l 206 263 b 353 158 228 200 278 158 "},"ґ":{"ha":510,"x_min":0,"x_max":0,"o":"m 468 833 l 468 492 l 226 492 l 226 0 l 42 0 l 42 669 l 289 669 l 289 833 "},"љ":{"ha":1082,"x_min":0,"x_max":0,"o":"m 774 458 b 1040 229 940 458 1040 367 b 774 0 1040 92 940 0 l 486 0 l 483 492 l 353 492 b 0 0 336 32 242 -43 l 42 171 b 175 669 174 135 175 354 l 668 669 l 668 458 l 774 458 m 774 157 b 863 229 829 157 863 186 b 774 303 863 274 829 303 l 668 303 l 668 157 l 774 157 "},"њ":{"ha":1058,"x_min":0,"x_max":0,"o":"m 750 419 b 1017 210 918 419 1017 346 b 750 0 1017 72 918 0 l 439 0 l 439 246 l 226 246 l 226 0 l 42 0 l 42 669 l 226 669 l 226 422 l 439 422 l 439 669 l 624 669 l 624 419 l 750 419 m 750 157 b 839 210 807 157 839 171 b 750 263 839 247 807 263 l 624 263 l 624 157 l 750 157 "},"ћ":{"ha":740,"x_min":0,"x_max":0,"o":"m 422 679 b 671 364 576 679 671 569 l 671 0 l 486 0 l 486 371 b 379 507 486 468 444 507 b 268 364 313 507 268 463 l 268 0 l 83 0 l 83 726 l 0 726 l 0 879 l 83 879 l 83 972 l 268 972 l 268 879 l 386 879 l 386 726 l 268 726 l 268 611 b 422 679 307 653 360 679 "},"ђ":{"ha":740,"x_min":0,"x_max":0,"o":"m 424 679 b 671 364 576 679 671 569 l 671 36 b 435 -269 671 -164 600 -269 b 306 -236 390 -269 344 -256 l 360 -85 b 401 -93 371 -89 385 -93 b 486 32 440 -93 486 -75 l 486 371 b 379 507 486 468 446 507 b 268 364 313 507 268 463 l 268 0 l 83 0 l 83 726 l 0 726 l 0 879 l 83 879 l 83 972 l 268 972 l 268 879 l 388 879 l 388 726 l 268 726 l 268 611 b 424 679 308 653 360 679 "},"џ":{"ha":674,"x_min":0,"x_max":0,"o":"m 604 669 l 604 0 l 413 0 l 413 -165 l 233 -165 l 233 0 l 42 0 l 42 669 l 226 669 l 226 176 l 419 176 l 419 669 "},"˚":{"ha":389,"x_min":0,"x_max":0,"o":"m 194 1090 b 361 925 288 1090 361 1017 b 194 758 361 832 288 758 b 28 925 103 758 28 832 b 194 1090 28 1017 103 1090 m 194 867 b 251 925 226 867 251 893 b 194 982 251 956 226 982 b 138 925 164 982 138 956 b 194 867 138 893 164 867 "},"˙":{"ha":278,"x_min":0,"x_max":0,"o":"m 139 975 b 236 878 193 975 236 932 b 139 779 236 824 193 779 b 42 878 85 779 42 824 b 139 975 42 932 85 975 "},"˘":{"ha":406,"x_min":0,"x_max":0,"o":"m 378 950 b 203 775 378 847 300 775 b 28 950 106 775 28 847 l 146 950 b 203 893 146 915 171 893 b 260 950 235 893 260 915 "},"¨":{"ha":519,"x_min":0,"x_max":0,"o":"m 125 975 b 224 878 179 975 224 932 b 125 779 224 824 179 779 b 28 878 71 779 28 824 b 125 975 28 932 71 975 m 393 975 b 492 878 447 975 492 932 b 393 779 492 824 447 779 b 296 878 340 779 296 824 b 393 975 296 932 340 975 "},"ˆ":{"ha":517,"x_min":0,"x_max":0,"o":"m 322 782 l 258 865 l 194 782 l 28 782 l 182 972 l 333 972 l 489 782 "},"ˇ":{"ha":515,"x_min":0,"x_max":0,"o":"m 488 972 l 333 782 l 182 782 l 28 972 l 193 972 l 258 889 l 322 972 "},"´":{"ha":318,"x_min":0,"x_max":0,"o":"m 290 974 l 146 783 l 28 783 l 121 974 "},"`":{"ha":306,"x_min":0,"x_max":0,"o":"m 278 790 l 160 790 l 14 981 l 185 981 "},"˜":{"ha":578,"x_min":0,"x_max":0,"o":"m 550 911 b 290 807 485 746 388 764 b 151 789 208 843 179 843 l 28 860 b 292 954 94 974 169 1008 b 415 965 361 924 400 911 "},"¯":{"ha":444,"x_min":0,"x_max":0,"o":"m 403 946 l 403 806 l 42 806 l 42 946 "},"¸":{"ha":344,"x_min":0,"x_max":0,"o":"m 315 -165 b 28 -254 321 -287 169 -349 l 76 -174 b 200 -194 122 -208 178 -214 b 186 -139 217 -179 217 -147 b 135 -149 174 -135 154 -133 l 60 -111 l 111 3 l 218 3 l 182 -64 b 315 -165 260 -60 313 -104 "},"":{"ha":238,"x_min":0,"x_max":0,"o":"m 210 -107 l 126 -289 l 28 -289 l 60 -107 "},"˛":{"ha":281,"x_min":0,"x_max":0,"o":"m 149 -156 b 236 -156 163 -179 213 -174 l 236 -268 b 160 -281 214 -276 181 -281 b 29 -156 82 -281 22 -233 b 136 3 35 -81 107 -15 l 253 3 b 149 -156 196 -29 122 -112 "},"Ą":{"ha":928,"x_min":0,"x_max":0,"o":"m 874 0 b 771 -157 817 -33 744 -114 b 858 -158 785 -181 836 -175 l 858 -269 b 782 -282 836 -278 803 -282 b 651 -158 704 -282 644 -236 b 757 0 658 -82 726 -18 l 706 0 l 464 694 l 224 0 l 14 0 l 369 972 l 558 972 l 914 0 l 874 0 "},"Ç":{"ha":944,"x_min":0,"x_max":0,"o":"m 514 174 b 749 300 621 174 701 222 l 917 217 b 550 -10 842 88 713 1 l 519 -64 b 653 -165 597 -60 650 -104 b 365 -254 658 -287 507 -349 l 414 -174 b 538 -194 460 -208 515 -214 b 524 -139 554 -179 554 -147 b 472 -149 511 -135 492 -133 l 397 -111 l 444 -6 b 42 485 203 26 42 229 b 514 981 42 764 235 981 b 917 753 693 981 836 892 l 749 669 b 514 796 701 747 621 796 b 231 485 336 796 231 663 b 514 174 231 308 336 174 m 424 483 b 517 576 424 535 465 576 b 611 483 569 576 611 535 b 517 389 611 431 569 389 b 424 483 465 389 424 431 "},"Ę":{"ha":778,"x_min":0,"x_max":0,"o":"m 722 0 b 619 -157 667 -33 593 -114 b 707 -158 633 -181 683 -175 l 707 -269 b 629 -282 685 -278 651 -282 b 500 -158 553 -282 493 -236 b 604 0 506 -85 572 -21 l 76 0 l 76 176 l 722 176 l 722 0 m 671 397 l 76 397 l 76 574 l 671 574 m 714 794 l 76 794 l 76 972 l 714 972 "},"Į":{"ha":338,"x_min":0,"x_max":0,"o":"m 76 679 l 261 679 l 261 0 l 231 0 b 129 -157 174 -35 103 -115 b 217 -158 143 -181 193 -175 l 217 -269 b 140 -282 194 -278 161 -282 b 10 -158 63 -282 3 -236 b 115 0 15 -85 85 -21 l 76 0 m 261 972 l 261 815 l 76 815 l 76 972 "},"Ş":{"ha":807,"x_min":0,"x_max":0,"o":"m 557 -165 b 269 -254 563 -287 411 -349 l 318 -174 b 442 -194 364 -208 419 -214 b 428 -139 458 -179 458 -147 b 376 -149 415 -135 396 -133 l 303 -112 l 400 171 b 575 274 507 175 575 218 b 369 406 575 333 532 357 b 54 700 144 474 54 557 b 397 981 54 828 147 981 b 518 964 439 981 479 975 l 404 797 l 394 797 b 250 707 304 797 250 761 b 439 585 250 661 289 631 b 772 282 628 528 772 461 b 436 -15 772 131 668 -11 l 417 -64 b 557 -165 494 -60 554 -104 m 197 290 b 264 206 204 263 221 232 l 200 29 b 28 225 104 74 43 144 "},"Ų":{"ha":883,"x_min":0,"x_max":0,"o":"m 814 972 l 814 489 l 629 569 l 629 972 m 629 404 l 811 325 b 643 40 799 193 738 94 b 536 -157 585 -4 500 -115 b 624 -158 554 -178 601 -175 l 624 -269 b 547 -282 603 -278 569 -282 b 417 -158 469 -282 410 -236 b 510 -6 422 -101 472 -42 b 442 -11 488 -8 465 -11 b 69 382 217 -11 69 139 l 69 679 l 254 679 l 254 386 b 442 174 254 254 326 174 b 629 386 558 174 629 254 m 254 815 l 69 815 l 69 972 l 254 972 "},"ą":{"ha":681,"x_min":0,"x_max":0,"o":"m 483 -156 b 571 -156 497 -179 547 -174 l 571 -268 b 494 -281 549 -276 515 -281 b 364 -156 417 -281 357 -233 b 465 0 369 -83 435 -21 l 428 0 l 428 63 b 222 -11 403 38 336 -11 b 14 158 92 -11 19 57 b 256 386 14 304 114 356 b 424 449 368 411 415 411 b 325 528 433 489 390 531 b 214 449 268 526 225 500 l 60 482 b 338 679 72 569 171 679 b 611 418 483 679 611 613 l 611 0 l 582 0 b 483 -156 526 -33 457 -114 m 428 294 b 279 260 428 294 367 282 b 204 164 211 242 192 197 b 299 132 215 133 257 125 b 428 274 371 143 422 200 "},"ç":{"ha":657,"x_min":0,"x_max":0,"o":"m 353 158 b 476 218 407 158 450 181 l 629 143 b 379 -10 578 57 489 -1 l 349 -64 b 483 -165 426 -60 481 -104 b 194 -254 489 -287 338 -349 l 244 -174 b 367 -194 289 -208 346 -214 b 354 -139 385 -179 385 -147 b 301 -149 340 -135 321 -133 l 226 -111 l 276 -1 b 14 335 122 32 14 168 b 353 679 14 528 160 679 b 629 525 475 679 574 618 l 476 451 b 353 511 450 488 407 511 b 194 335 253 511 194 435 b 353 158 194 235 253 158 "},"ę":{"ha":697,"x_min":0,"x_max":0,"o":"m 204 268 b 353 158 225 203 276 158 b 476 218 407 158 450 181 l 629 143 b 522 36 603 99 567 63 b 421 -157 465 -11 386 -117 b 508 -157 439 -178 486 -175 l 508 -269 b 432 -282 488 -278 454 -282 b 301 -158 354 -282 294 -235 b 392 -8 307 -103 354 -44 b 353 -11 379 -10 367 -11 b 14 335 160 -11 14 142 b 344 679 14 528 153 679 b 656 335 538 679 656 528 b 650 268 656 311 654 289 m 344 511 b 203 397 267 511 219 464 l 481 397 b 344 511 465 464 422 511 "},"į":{"ha":318,"x_min":0,"x_max":0,"o":"m 53 669 l 238 669 l 238 0 l 210 0 b 107 -158 153 -33 81 -115 b 194 -158 121 -182 171 -176 l 194 -271 b 117 -283 172 -279 139 -283 b -14 -158 40 -283 -19 -236 b 94 0 -7 -83 63 -19 l 53 0 m 146 763 b 42 865 88 763 42 808 b 146 969 42 924 88 969 b 249 865 203 969 249 924 b 146 763 249 808 203 763 "},"ş":{"ha":575,"x_min":0,"x_max":0,"o":"m 336 410 b 546 193 493 361 550 294 b 324 -7 542 83 454 6 l 293 -64 b 426 -165 371 -60 424 -104 b 139 -254 432 -287 281 -349 l 188 -174 b 311 -194 233 -208 289 -214 b 297 -139 328 -179 328 -147 b 246 -149 285 -135 265 -133 l 171 -111 l 218 -4 b -7 150 104 13 11 79 l 128 222 b 247 157 142 188 200 160 b 351 203 297 154 353 167 b 225 276 350 240 318 244 b 19 488 79 328 15 378 b 272 678 24 581 99 678 b 519 513 432 678 510 574 l 378 472 b 297 531 371 494 349 526 b 210 483 226 536 208 501 b 336 410 211 458 231 442 "},"ų":{"ha":700,"x_min":0,"x_max":0,"o":"m 631 669 l 631 306 b 449 7 631 147 563 44 b 344 -168 392 -26 318 -125 b 432 -168 358 -190 408 -185 l 432 -281 b 356 -292 410 -287 376 -292 b 225 -168 278 -292 218 -246 b 331 -11 231 -94 299 -31 b 42 306 150 -8 42 101 l 42 669 l 226 669 l 226 297 b 338 163 226 200 272 163 b 446 297 404 163 446 200 l 446 669 "},"Á":{"ha":928,"x_min":0,"x_max":0,"o":"m 914 0 l 704 0 l 464 694 l 224 0 l 14 0 l 369 972 l 558 972 m 679 1251 l 535 1061 l 417 1061 l 510 1251 "},"Ă":{"ha":928,"x_min":0,"x_max":0,"o":"m 914 0 l 704 0 l 464 694 l 224 0 l 14 0 l 369 972 l 558 972 m 639 1228 b 464 1053 639 1125 561 1053 b 289 1228 367 1053 289 1125 l 407 1228 b 464 1171 407 1193 432 1171 b 521 1228 496 1171 521 1193 "},"Â":{"ha":928,"x_min":0,"x_max":0,"o":"m 914 0 l 704 0 l 464 694 l 224 0 l 14 0 l 369 972 l 558 972 m 528 1060 l 464 1143 l 400 1060 l 233 1060 l 388 1250 l 539 1250 l 694 1060 "},"À":{"ha":928,"x_min":0,"x_max":0,"o":"m 914 0 l 704 0 l 464 694 l 224 0 l 14 0 l 369 972 l 558 972 m 519 1068 l 401 1068 l 256 1258 l 426 1258 "},"Ä":{"ha":928,"x_min":0,"x_max":0,"o":"m 914 0 l 704 0 l 464 694 l 224 0 l 14 0 l 369 972 l 558 972 m 329 1253 b 428 1156 383 1253 428 1210 b 329 1057 428 1101 383 1057 b 232 1156 275 1057 232 1101 b 329 1253 232 1210 275 1253 m 597 1253 b 696 1156 651 1253 696 1210 b 597 1057 696 1101 651 1057 b 500 1156 544 1057 500 1101 b 597 1253 500 1210 544 1253 "},"Ā":{"ha":928,"x_min":0,"x_max":0,"o":"m 914 0 l 704 0 l 464 694 l 224 0 l 14 0 l 369 972 l 558 972 m 644 1224 l 644 1083 l 283 1083 l 283 1224 "},"Å":{"ha":928,"x_min":0,"x_max":0,"o":"m 914 0 l 704 0 l 464 694 l 224 0 l 14 0 l 369 972 l 558 972 m 464 1368 b 631 1203 557 1368 631 1294 b 464 1036 631 1110 557 1036 b 297 1203 372 1036 297 1110 b 464 1368 297 1294 372 1368 m 464 1144 b 521 1203 496 1144 521 1171 b 464 1260 521 1233 496 1260 b 407 1203 433 1260 407 1233 b 464 1144 407 1171 433 1144 "},"Ã":{"ha":928,"x_min":0,"x_max":0,"o":"m 914 0 l 704 0 l 464 694 l 224 0 l 14 0 l 369 972 l 558 972 m 725 1189 b 465 1085 660 1024 563 1042 b 326 1067 383 1121 354 1121 l 203 1138 b 467 1232 269 1251 344 1286 b 590 1243 536 1201 575 1189 "},"Ǽ":{"ha":1371,"x_min":0,"x_max":0,"o":"m 1315 0 l 669 0 l 669 243 l 347 243 l 222 0 l 14 0 l 525 972 l 1307 972 l 1307 796 l 854 796 l 854 574 l 1264 574 l 1264 397 l 854 397 l 854 176 l 1315 176 m 438 421 l 669 421 l 669 796 l 629 796 m 976 1251 l 832 1061 l 714 1061 l 807 1251 "},"Ć":{"ha":943,"x_min":0,"x_max":0,"o":"m 513 174 b 747 300 619 174 700 222 l 915 217 b 513 -11 836 78 692 -11 b 42 485 233 -11 42 206 b 513 981 42 764 233 981 b 915 753 692 981 836 890 l 747 669 b 513 796 700 747 619 796 b 231 485 336 796 231 663 b 513 174 231 307 336 174 m 422 483 b 517 576 422 535 465 576 b 611 483 569 576 611 535 b 517 389 611 431 569 389 b 422 483 465 389 422 431 m 707 1251 l 563 1061 l 444 1061 l 538 1251 "},"Č":{"ha":943,"x_min":0,"x_max":0,"o":"m 513 174 b 747 300 619 174 700 222 l 915 217 b 513 -11 836 78 692 -11 b 42 485 233 -11 42 206 b 513 981 42 764 233 981 b 915 753 692 981 836 890 l 747 669 b 513 796 700 747 619 796 b 231 485 336 796 231 663 b 513 174 231 307 336 174 m 422 483 b 517 576 422 535 465 576 b 611 483 569 576 611 535 b 517 389 611 431 569 389 b 422 483 465 389 422 431 m 722 1250 l 568 1060 l 417 1060 l 263 1250 l 428 1250 l 493 1167 l 557 1250 "},"Ĉ":{"ha":943,"x_min":0,"x_max":0,"o":"m 513 174 b 747 300 619 174 700 222 l 915 217 b 513 -11 836 78 692 -11 b 42 485 233 -11 42 206 b 513 981 42 764 233 981 b 915 753 692 981 836 890 l 747 669 b 513 796 700 747 619 796 b 231 485 336 796 231 663 b 513 174 231 307 336 174 m 422 483 b 517 576 422 535 465 576 b 611 483 569 576 611 535 b 517 389 611 431 569 389 b 422 483 465 389 422 431 m 557 1060 l 493 1143 l 429 1060 l 263 1060 l 417 1250 l 568 1250 l 724 1060 "},"Ċ":{"ha":943,"x_min":0,"x_max":0,"o":"m 513 174 b 747 300 619 174 700 222 l 915 217 b 513 -11 836 78 692 -11 b 42 485 233 -11 42 206 b 513 981 42 764 233 981 b 915 753 692 981 836 890 l 747 669 b 513 796 700 747 619 796 b 231 485 336 796 231 663 b 513 174 231 307 336 174 m 422 483 b 517 576 422 535 465 576 b 611 483 569 576 611 535 b 517 389 611 431 569 389 b 422 483 465 389 422 431 m 493 1253 b 590 1156 547 1253 590 1210 b 493 1057 590 1101 547 1057 b 396 1156 439 1057 396 1101 b 493 1253 396 1210 439 1253 "},"Ď":{"ha":940,"x_min":0,"x_max":0,"o":"m 389 972 b 899 486 711 972 899 769 b 389 0 899 201 711 0 b 76 0 389 0 76 0 l 76 456 l 261 456 l 261 176 l 385 176 b 714 486 589 176 714 300 b 385 794 714 671 589 794 l 76 794 l 76 972 b 389 972 76 972 389 972 m 663 1250 l 508 1060 l 357 1060 l 203 1250 l 368 1250 l 433 1167 l 497 1250 "},"É":{"ha":778,"x_min":0,"x_max":0,"o":"m 722 176 l 722 0 l 76 0 l 76 176 m 671 397 l 76 397 l 76 574 l 671 574 m 714 794 l 76 794 l 76 972 l 714 972 m 600 1251 l 456 1061 l 338 1061 l 431 1251 "},"Ĕ":{"ha":778,"x_min":0,"x_max":0,"o":"m 722 176 l 722 0 l 76 0 l 76 176 m 671 397 l 76 397 l 76 574 l 671 574 m 714 794 l 76 794 l 76 972 l 714 972 m 589 1228 b 414 1053 589 1125 511 1053 b 239 1228 317 1053 239 1125 l 357 1228 b 414 1171 357 1193 382 1171 b 471 1228 446 1171 471 1193 "},"Ě":{"ha":778,"x_min":0,"x_max":0,"o":"m 722 176 l 722 0 l 76 0 l 76 176 m 671 397 l 76 397 l 76 574 l 671 574 m 714 794 l 76 794 l 76 972 l 714 972 m 643 1250 l 489 1060 l 338 1060 l 183 1250 l 349 1250 l 414 1167 l 478 1250 "},"Ê":{"ha":778,"x_min":0,"x_max":0,"o":"m 722 176 l 722 0 l 76 0 l 76 176 m 671 397 l 76 397 l 76 574 l 671 574 m 714 794 l 76 794 l 76 972 l 714 972 m 464 1060 l 400 1143 l 336 1060 l 169 1060 l 324 1250 l 475 1250 l 631 1060 "},"Ë":{"ha":778,"x_min":0,"x_max":0,"o":"m 722 176 l 722 0 l 76 0 l 76 176 m 671 397 l 76 397 l 76 574 l 671 574 m 714 794 l 76 794 l 76 972 l 714 972 m 265 1253 b 364 1156 319 1253 364 1210 b 265 1057 364 1101 319 1057 b 168 1156 211 1057 168 1101 b 265 1253 168 1210 211 1253 m 533 1253 b 632 1156 588 1253 632 1210 b 533 1057 632 1101 588 1057 b 436 1156 481 1057 436 1101 b 533 1253 436 1210 481 1253 "},"Ė":{"ha":778,"x_min":0,"x_max":0,"o":"m 722 176 l 722 0 l 76 0 l 76 176 m 671 397 l 76 397 l 76 574 l 671 574 m 714 794 l 76 794 l 76 972 l 714 972 m 400 1253 b 497 1156 454 1253 497 1210 b 400 1057 497 1101 454 1057 b 303 1156 346 1057 303 1101 b 400 1253 303 1210 346 1253 "},"È":{"ha":778,"x_min":0,"x_max":0,"o":"m 722 176 l 722 0 l 76 0 l 76 176 m 671 397 l 76 397 l 76 574 l 671 574 m 714 794 l 76 794 l 76 972 l 714 972 m 490 1068 l 372 1068 l 226 1258 l 397 1258 "},"Ē":{"ha":778,"x_min":0,"x_max":0,"o":"m 722 176 l 722 0 l 76 0 l 76 176 m 671 397 l 76 397 l 76 574 l 671 574 m 714 794 l 76 794 l 76 972 l 714 972 m 581 1224 l 581 1083 l 219 1083 l 219 1224 "},"Ğ":{"ha":993,"x_min":0,"x_max":0,"o":"m 924 575 l 924 136 b 504 -11 853 40 679 -29 b 49 485 226 18 49 206 b 511 981 49 764 229 965 b 894 872 664 988 806 943 l 799 738 b 515 799 722 781 622 808 b 238 485 357 793 238 663 b 519 174 238 307 344 197 b 746 217 615 161 696 179 l 746 575 m 689 1228 b 514 1053 689 1125 611 1053 b 339 1228 417 1053 339 1125 l 457 1228 b 514 1171 457 1193 482 1171 b 571 1228 546 1171 571 1193 "},"Ĝ":{"ha":993,"x_min":0,"x_max":0,"o":"m 924 575 l 924 136 b 504 -11 853 40 679 -29 b 49 485 226 18 49 206 b 511 981 49 764 229 965 b 894 872 664 988 806 943 l 799 738 b 515 799 722 781 622 808 b 238 485 357 793 238 663 b 519 174 238 307 344 197 b 746 217 615 161 696 179 l 746 575 m 586 1060 l 522 1143 l 458 1060 l 292 1060 l 446 1250 l 597 1250 l 753 1060 "},"Ģ":{"ha":993,"x_min":0,"x_max":0,"o":"m 924 575 l 924 136 b 504 -11 853 40 679 -29 b 49 485 226 18 49 206 b 511 981 49 764 229 965 b 894 872 664 988 806 943 l 799 738 b 515 799 722 781 622 808 b 238 485 357 793 238 663 b 519 174 238 307 344 197 b 746 217 615 161 696 179 l 746 575 m 576 -107 l 493 -289 l 394 -289 l 426 -107 "},"Ġ":{"ha":993,"x_min":0,"x_max":0,"o":"m 924 575 l 924 136 b 504 -11 853 40 679 -29 b 49 485 226 18 49 206 b 511 981 49 764 229 965 b 894 872 664 988 806 943 l 799 738 b 515 799 722 781 622 808 b 238 485 357 793 238 663 b 519 174 238 307 344 197 b 746 217 615 161 696 179 l 746 575 m 517 1253 b 614 1156 571 1253 614 1210 b 517 1057 614 1101 571 1057 b 419 1156 463 1057 419 1101 b 517 1253 419 1210 463 1253 "},"Ĥ":{"ha":928,"x_min":0,"x_max":0,"o":"m 83 261 l 268 261 l 268 0 l 83 0 m 844 574 l 844 0 l 660 0 l 660 397 l 83 397 l 83 972 l 268 972 l 268 574 m 844 972 l 844 711 l 660 711 l 660 972 m 528 1060 l 464 1143 l 400 1060 l 233 1060 l 388 1250 l 539 1250 l 694 1060 "},"Í":{"ha":338,"x_min":0,"x_max":0,"o":"m 76 679 l 261 679 l 261 0 l 76 0 m 261 972 l 261 815 l 76 815 l 76 972 m 369 1251 l 225 1061 l 107 1061 l 200 1251 "},"Ĭ":{"ha":364,"x_min":0,"x_max":0,"o":"m 82 679 l 267 679 l 267 0 l 82 0 m 267 972 l 267 815 l 82 815 l 82 972 m 350 1228 b 175 1053 350 1125 272 1053 b 0 1228 78 1053 0 1125 l 118 1228 b 175 1171 118 1193 143 1171 b 232 1228 207 1171 232 1193 "},"Î":{"ha":378,"x_min":0,"x_max":0,"o":"m 96 679 l 281 679 l 281 0 l 96 0 m 281 972 l 281 815 l 96 815 l 96 972 m 253 1060 l 189 1143 l 125 1060 l -42 1060 l 113 1250 l 264 1250 l 419 1060 "},"Ï":{"ha":381,"x_min":0,"x_max":0,"o":"m 97 679 l 282 679 l 282 0 l 97 0 m 282 972 l 282 815 l 97 815 l 97 972 m 56 1253 b 154 1156 110 1253 154 1210 b 56 1057 154 1101 110 1057 b -42 1156 1 1057 -42 1101 b 56 1253 -42 1210 1 1253 m 324 1253 b 422 1156 378 1253 422 1210 b 324 1057 422 1101 378 1057 b 226 1156 271 1057 226 1101 b 324 1253 226 1210 271 1253 "},"İ":{"ha":338,"x_min":0,"x_max":0,"o":"m 75 679 l 260 679 l 260 0 l 75 0 m 260 972 l 260 815 l 75 815 l 75 972 m 168 1253 b 265 1156 222 1253 265 1210 b 168 1057 265 1101 222 1057 b 71 1156 114 1057 71 1101 b 168 1253 71 1210 114 1253 "},"Ì":{"ha":338,"x_min":0,"x_max":0,"o":"m 76 679 l 261 679 l 261 0 l 76 0 m 261 972 l 261 815 l 76 815 l 76 972 m 232 1068 l 114 1068 l -32 1258 l 139 1258 "},"Ī":{"ha":361,"x_min":0,"x_max":0,"o":"m 88 679 l 272 679 l 272 0 l 88 0 m 272 972 l 272 815 l 88 815 l 88 972 m 361 1224 l 361 1083 l 0 1083 l 0 1224 "},"Ĩ":{"ha":383,"x_min":0,"x_max":0,"o":"m 99 679 l 283 679 l 283 0 l 99 0 m 283 972 l 283 815 l 99 815 l 99 972 m 453 1189 b 193 1085 388 1024 290 1042 b 54 1067 111 1121 82 1121 l -69 1138 b 194 1232 -3 1251 72 1286 b 318 1243 264 1201 303 1189 "},"Ĵ":{"ha":613,"x_min":0,"x_max":0,"o":"m 536 679 l 536 332 b 253 -11 536 86 422 -11 b 14 93 142 -11 60 40 l 122 224 b 242 169 139 204 178 167 b 351 311 306 172 351 221 l 351 679 m 536 972 l 536 815 l 351 815 l 351 972 m 506 1060 l 442 1143 l 378 1060 l 211 1060 l 365 1250 l 517 1250 l 672 1060 "},"Ķ":{"ha":868,"x_min":0,"x_max":0,"o":"m 379 399 l 261 399 l 261 0 l 76 0 l 76 972 l 261 972 l 261 575 l 375 575 l 631 972 l 833 972 l 540 493 l 854 0 l 624 0 m 514 -107 l 431 -289 l 332 -289 l 364 -107 "},"Ĺ":{"ha":701,"x_min":0,"x_max":0,"o":"m 660 176 l 660 0 l 157 0 l 336 176 m 261 306 l 76 122 l 76 679 l 261 679 m 261 815 l 76 815 l 76 972 l 261 972 m 375 1251 l 231 1061 l 113 1061 l 206 1251 "},"˝":{"ha":547,"x_min":0,"x_max":0,"o":"m 290 981 l 146 790 l 28 790 l 121 981 m 519 981 l 375 790 l 257 790 l 350 981 "},"‹":{"ha":454,"x_min":0,"x_max":0,"o":"m 243 371 l 399 153 l 211 153 l 56 371 l 211 589 l 399 589 "},"›":{"ha":454,"x_min":0,"x_max":0,"o":"m 399 371 l 243 153 l 56 153 l 211 371 l 56 589 l 243 589 "},"’":{"ha":239,"x_min":0,"x_max":0,"o":"m 211 981 l 114 747 l 28 747 l 64 981 "},"‘":{"ha":239,"x_min":0,"x_max":0,"o":"m 125 981 l 211 981 l 175 747 l 28 747 "},"'":{"ha":240,"x_min":0,"x_max":0,"o":"m 199 981 l 165 747 l 74 747 l 42 981 "},"…":{"ha":904,"x_min":0,"x_max":0,"o":"m 153 175 b 251 78 207 175 251 132 b 153 -19 251 24 207 -19 b 56 78 100 -19 56 24 b 153 175 56 132 100 175 m 444 175 b 543 78 499 175 543 132 b 444 -19 543 24 499 -19 b 347 78 392 -19 347 24 b 444 175 347 132 392 175 m 736 175 b 835 78 790 175 835 132 b 736 -19 835 24 790 -19 b 639 78 683 -19 639 24 b 736 175 639 132 683 175 "},"Ľ":{"ha":701,"x_min":0,"x_max":0,"o":"m 660 176 l 660 0 l 157 0 l 336 176 m 261 306 l 76 122 l 76 679 l 261 679 m 261 815 l 76 815 l 76 972 l 261 972 m 536 972 l 439 739 l 353 739 l 389 972 "},"Ļ":{"ha":701,"x_min":0,"x_max":0,"o":"m 660 176 l 660 0 l 157 0 l 336 176 m 261 306 l 76 122 l 76 679 l 261 679 m 261 815 l 76 815 l 76 972 l 261 972 m 458 -107 l 375 -289 l 276 -289 l 308 -107 "},"Ŀ":{"ha":701,"x_min":0,"x_max":0,"o":"m 660 176 l 660 0 l 157 0 l 336 176 m 261 306 l 76 122 l 76 679 l 261 679 m 261 815 l 76 815 l 76 972 l 261 972 m 467 576 b 564 479 521 576 564 533 b 467 381 564 425 521 381 b 369 479 413 381 369 425 b 467 576 369 533 413 576 "},"Ń":{"ha":910,"x_min":0,"x_max":0,"o":"m 649 972 l 833 972 l 833 -11 l 821 -11 l 261 544 l 261 0 l 76 0 l 76 981 l 89 981 l 649 426 m 656 1251 l 511 1061 l 393 1061 l 486 1251 "},"Ň":{"ha":910,"x_min":0,"x_max":0,"o":"m 649 972 l 833 972 l 833 -11 l 821 -11 l 261 544 l 261 0 l 76 0 l 76 981 l 89 981 l 649 426 m 685 1250 l 531 1060 l 379 1060 l 225 1250 l 390 1250 l 456 1167 l 519 1250 "},"Ņ":{"ha":910,"x_min":0,"x_max":0,"o":"m 649 972 l 833 972 l 833 -11 l 821 -11 l 261 544 l 261 0 l 76 0 l 76 981 l 89 981 l 649 426 m 532 -107 l 449 -289 l 350 -289 l 382 -107 "},"Ñ":{"ha":910,"x_min":0,"x_max":0,"o":"m 649 972 l 833 972 l 833 -11 l 821 -11 l 261 544 l 261 0 l 76 0 l 76 981 l 89 981 l 649 426 m 717 1189 b 457 1085 651 1024 554 1042 b 318 1067 375 1121 346 1121 l 194 1138 b 458 1232 261 1251 336 1286 b 582 1243 528 1201 567 1189 "},"Ó":{"ha":1026,"x_min":0,"x_max":0,"o":"m 514 981 b 985 485 793 981 985 764 b 514 -11 985 206 793 -11 b 42 485 235 -11 42 206 b 514 981 42 764 235 981 m 514 174 b 796 485 690 174 796 307 b 514 796 796 663 690 796 b 231 485 336 796 231 663 b 514 174 231 307 336 174 m 514 579 b 607 485 565 579 607 536 b 514 390 607 433 565 390 b 419 485 461 390 419 433 b 514 579 419 536 461 579 m 714 1251 l 569 1061 l 451 1061 l 544 1251 "},"Ŏ":{"ha":1026,"x_min":0,"x_max":0,"o":"m 514 981 b 985 485 793 981 985 764 b 514 -11 985 206 793 -11 b 42 485 235 -11 42 206 b 514 981 42 764 235 981 m 514 174 b 796 485 690 174 796 307 b 514 796 796 663 690 796 b 231 485 336 796 231 663 b 514 174 231 307 336 174 m 514 579 b 607 485 565 579 607 536 b 514 390 607 433 565 390 b 419 485 461 390 419 433 b 514 579 419 536 461 579 m 688 1228 b 513 1053 688 1125 610 1053 b 338 1228 415 1053 338 1125 l 456 1228 b 513 1171 456 1193 481 1171 b 569 1228 544 1171 569 1193 "},"Ô":{"ha":1026,"x_min":0,"x_max":0,"o":"m 514 981 b 985 485 793 981 985 764 b 514 -11 985 206 793 -11 b 42 485 235 -11 42 206 b 514 981 42 764 235 981 m 514 174 b 796 485 690 174 796 307 b 514 796 796 663 690 796 b 231 485 336 796 231 663 b 514 174 231 307 336 174 m 514 579 b 607 485 565 579 607 536 b 514 390 607 433 565 390 b 419 485 461 390 419 433 b 514 579 419 536 461 579 m 576 1060 l 513 1143 l 449 1060 l 282 1060 l 436 1250 l 588 1250 l 743 1060 "},"Ö":{"ha":1026,"x_min":0,"x_max":0,"o":"m 514 981 b 985 485 793 981 985 764 b 514 -11 985 206 793 -11 b 42 485 235 -11 42 206 b 514 981 42 764 235 981 m 514 174 b 796 485 690 174 796 307 b 514 796 796 663 690 796 b 231 485 336 796 231 663 b 514 174 231 307 336 174 m 514 579 b 607 485 565 579 607 536 b 514 390 607 433 565 390 b 419 485 461 390 419 433 b 514 579 419 536 461 579 m 379 1253 b 478 1156 433 1253 478 1210 b 379 1057 478 1101 433 1057 b 282 1156 325 1057 282 1101 b 379 1253 282 1210 325 1253 m 647 1253 b 746 1156 701 1253 746 1210 b 647 1057 746 1101 701 1057 b 550 1156 594 1057 550 1101 b 647 1253 550 1210 594 1253 "},"Ò":{"ha":1026,"x_min":0,"x_max":0,"o":"m 514 981 b 985 485 793 981 985 764 b 514 -11 985 206 793 -11 b 42 485 235 -11 42 206 b 514 981 42 764 235 981 m 514 174 b 796 485 690 174 796 307 b 514 796 796 663 690 796 b 231 485 336 796 231 663 b 514 174 231 307 336 174 m 514 579 b 607 485 565 579 607 536 b 514 390 607 433 565 390 b 419 485 461 390 419 433 b 514 579 419 536 461 579 m 590 1068 l 472 1068 l 326 1258 l 497 1258 "},"Ő":{"ha":1026,"x_min":0,"x_max":0,"o":"m 514 981 b 985 485 793 981 985 764 b 514 -11 985 206 793 -11 b 42 485 235 -11 42 206 b 514 981 42 764 235 981 m 514 174 b 796 485 690 174 796 307 b 514 796 796 663 690 796 b 231 485 336 796 231 663 b 514 174 231 307 336 174 m 514 579 b 607 485 565 579 607 536 b 514 390 607 433 565 390 b 419 485 461 390 419 433 b 514 579 419 536 461 579 m 600 1258 l 456 1068 l 338 1068 l 431 1258 m 829 1258 l 685 1068 l 567 1068 l 660 1258 "},"Ō":{"ha":1026,"x_min":0,"x_max":0,"o":"m 514 981 b 985 485 793 981 985 764 b 514 -11 985 206 793 -11 b 42 485 235 -11 42 206 b 514 981 42 764 235 981 m 514 174 b 796 485 690 174 796 307 b 514 796 796 663 690 796 b 231 485 336 796 231 663 b 514 174 231 307 336 174 m 514 579 b 607 485 565 579 607 536 b 514 390 607 433 565 390 b 419 485 461 390 419 433 b 514 579 419 536 461 579 m 694 1224 l 694 1083 l 333 1083 l 333 1224 "},"Ǿ":{"ha":1026,"x_min":0,"x_max":0,"o":"m 890 790 b 983 485 950 707 983 601 b 511 -11 983 206 790 -11 b 240 72 407 -11 315 19 l 129 -51 l 15 51 l 132 181 b 40 485 74 264 40 368 b 511 981 40 764 232 981 b 782 899 615 981 707 950 l 894 1024 l 1007 921 m 229 485 b 263 325 229 425 240 371 l 656 760 b 511 796 615 782 567 796 b 229 485 335 796 229 663 m 794 485 b 760 646 794 544 782 600 l 367 211 b 511 175 407 188 456 175 b 794 485 689 175 794 308 m 725 1251 l 581 1061 l 463 1061 l 556 1251 "},"Õ":{"ha":1026,"x_min":0,"x_max":0,"o":"m 514 981 b 985 485 793 981 985 764 b 514 -11 985 206 793 -11 b 42 485 235 -11 42 206 b 514 981 42 764 235 981 m 514 174 b 796 485 690 174 796 307 b 514 796 796 663 690 796 b 231 485 336 796 231 663 b 514 174 231 307 336 174 m 514 579 b 607 485 565 579 607 536 b 514 390 607 433 565 390 b 419 485 461 390 419 433 b 514 579 419 536 461 579 m 775 1189 b 515 1085 710 1024 613 1042 b 376 1067 433 1121 404 1121 l 253 1138 b 517 1232 319 1251 394 1286 b 640 1243 586 1201 625 1189 "},"Ŕ":{"ha":818,"x_min":0,"x_max":0,"o":"m 396 333 l 261 333 l 261 0 l 76 0 l 76 510 l 432 510 b 582 653 524 510 582 569 b 432 794 582 736 524 794 l 76 794 l 76 972 l 436 972 b 774 653 653 972 774 831 b 589 361 774 522 710 411 l 797 0 l 589 0 m 594 1251 l 450 1061 l 332 1061 l 425 1251 "},"Ř":{"ha":818,"x_min":0,"x_max":0,"o":"m 396 333 l 261 333 l 261 0 l 76 0 l 76 510 l 432 510 b 582 653 524 510 582 569 b 432 794 582 736 524 794 l 76 794 l 76 972 l 436 972 b 774 653 653 972 774 831 b 589 361 774 522 710 411 l 797 0 l 589 0 m 638 1250 l 483 1060 l 332 1060 l 178 1250 l 343 1250 l 408 1167 l 472 1250 "},"Ŗ":{"ha":818,"x_min":0,"x_max":0,"o":"m 396 333 l 261 333 l 261 0 l 76 0 l 76 510 l 432 510 b 582 653 524 510 582 569 b 432 794 582 736 524 794 l 76 794 l 76 972 l 436 972 b 774 653 653 972 774 831 b 589 361 774 522 710 411 l 797 0 l 589 0 m 497 -107 l 414 -289 l 315 -289 l 347 -107 "},"Ś":{"ha":807,"x_min":0,"x_max":0,"o":"m 439 585 b 772 282 628 528 772 461 b 408 -17 772 121 660 -19 b 338 -12 385 -17 361 -15 l 400 171 b 575 274 507 175 575 218 b 369 406 575 333 532 357 b 54 700 144 474 54 557 b 397 981 54 828 147 981 b 518 964 439 981 479 975 l 404 797 b 394 797 401 797 397 797 b 250 707 304 797 250 761 b 439 585 250 661 289 631 m 197 290 b 264 206 204 263 221 232 l 200 29 b 28 225 104 74 43 144 m 596 1251 l 451 1061 l 333 1061 l 426 1251 "},"Š":{"ha":807,"x_min":0,"x_max":0,"o":"m 439 585 b 772 282 628 528 772 461 b 408 -17 772 121 660 -19 b 338 -12 385 -17 361 -15 l 400 171 b 575 274 507 175 575 218 b 369 406 575 333 532 357 b 54 700 144 474 54 557 b 397 981 54 828 147 981 b 518 964 439 981 479 975 l 404 797 b 394 797 401 797 397 797 b 250 707 304 797 250 761 b 439 585 250 661 289 631 m 197 290 b 264 206 204 263 221 232 l 200 29 b 28 225 104 74 43 144 m 625 1250 l 471 1060 l 319 1060 l 165 1250 l 331 1250 l 396 1167 l 460 1250 "},"Ŝ":{"ha":807,"x_min":0,"x_max":0,"o":"m 439 585 b 772 282 628 528 772 461 b 408 -17 772 121 660 -19 b 338 -12 385 -17 361 -15 l 400 171 b 575 274 507 175 575 218 b 369 406 575 333 532 357 b 54 700 144 474 54 557 b 397 981 54 828 147 981 b 518 964 439 981 479 975 l 404 797 b 394 797 401 797 397 797 b 250 707 304 797 250 761 b 439 585 250 661 289 631 m 197 290 b 264 206 204 263 221 232 l 200 29 b 28 225 104 74 43 144 m 460 1060 l 396 1143 l 332 1060 l 165 1060 l 319 1250 l 471 1250 l 626 1060 "},"Ș":{"ha":807,"x_min":0,"x_max":0,"o":"m 439 585 b 772 282 628 528 772 461 b 408 -17 772 121 660 -19 b 338 -12 385 -17 361 -15 l 400 171 b 575 274 507 175 575 218 b 369 406 575 333 532 357 b 54 700 144 474 54 557 b 397 981 54 828 147 981 b 518 964 439 981 479 975 l 404 797 b 394 797 401 797 397 797 b 250 707 304 797 250 761 b 439 585 250 661 289 631 m 197 290 b 264 206 204 263 221 232 l 200 29 b 28 225 104 74 43 144 m 439 -107 l 356 -289 l 257 -289 l 289 -107 "},"Ť":{"ha":790,"x_min":0,"x_max":0,"o":"m 749 972 l 749 794 l 40 794 l 40 972 m 303 650 l 488 650 l 488 0 l 303 0 m 625 1250 l 471 1060 l 319 1060 l 165 1250 l 331 1250 l 396 1167 l 460 1250 "},"Ţ":{"ha":790,"x_min":0,"x_max":0,"o":"m 749 972 l 749 794 l 40 794 l 40 972 m 303 650 l 488 650 l 488 0 l 303 0 m 468 -107 l 385 -289 l 286 -289 l 318 -107 "},"Ú":{"ha":883,"x_min":0,"x_max":0,"o":"m 629 404 l 811 325 b 442 -11 789 115 649 -11 b 69 382 215 -11 69 139 l 69 679 l 254 679 l 254 386 b 442 174 254 254 325 174 b 629 386 557 174 629 254 m 814 972 l 814 489 l 629 569 l 629 972 m 254 815 l 69 815 l 69 972 l 254 972 m 629 1251 l 485 1061 l 367 1061 l 460 1251 "},"Ŭ":{"ha":883,"x_min":0,"x_max":0,"o":"m 629 404 l 811 325 b 442 -11 789 115 649 -11 b 69 382 215 -11 69 139 l 69 679 l 254 679 l 254 386 b 442 174 254 254 325 174 b 629 386 557 174 629 254 m 814 972 l 814 489 l 629 569 l 629 972 m 254 815 l 69 815 l 69 972 l 254 972 m 617 1228 b 442 1053 617 1125 539 1053 b 267 1228 344 1053 267 1125 l 385 1228 b 442 1171 385 1193 410 1171 b 499 1228 474 1171 499 1193 "},"Û":{"ha":883,"x_min":0,"x_max":0,"o":"m 629 404 l 811 325 b 442 -11 789 115 649 -11 b 69 382 215 -11 69 139 l 69 679 l 254 679 l 254 386 b 442 174 254 254 325 174 b 629 386 557 174 629 254 m 814 972 l 814 489 l 629 569 l 629 972 m 254 815 l 69 815 l 69 972 l 254 972 m 506 1060 l 442 1143 l 378 1060 l 211 1060 l 365 1250 l 517 1250 l 672 1060 "},"Ü":{"ha":883,"x_min":0,"x_max":0,"o":"m 629 404 l 811 325 b 442 -11 789 115 649 -11 b 69 382 215 -11 69 139 l 69 679 l 254 679 l 254 386 b 442 174 254 254 325 174 b 629 386 557 174 629 254 m 814 972 l 814 489 l 629 569 l 629 972 m 254 815 l 69 815 l 69 972 l 254 972 m 307 1253 b 406 1156 361 1253 406 1210 b 307 1057 406 1101 361 1057 b 210 1156 253 1057 210 1101 b 307 1253 210 1210 253 1253 m 575 1253 b 674 1156 629 1253 674 1210 b 575 1057 674 1101 629 1057 b 478 1156 522 1057 478 1101 b 575 1253 478 1210 522 1253 "},"Ù":{"ha":883,"x_min":0,"x_max":0,"o":"m 629 404 l 811 325 b 442 -11 789 115 649 -11 b 69 382 215 -11 69 139 l 69 679 l 254 679 l 254 386 b 442 174 254 254 325 174 b 629 386 557 174 629 254 m 814 972 l 814 489 l 629 569 l 629 972 m 254 815 l 69 815 l 69 972 l 254 972 m 518 1068 l 400 1068 l 254 1258 l 425 1258 "},"Ű":{"ha":883,"x_min":0,"x_max":0,"o":"m 629 404 l 811 325 b 442 -11 789 115 649 -11 b 69 382 215 -11 69 139 l 69 679 l 254 679 l 254 386 b 442 174 254 254 325 174 b 629 386 557 174 629 254 m 814 972 l 814 489 l 629 569 l 629 972 m 254 815 l 69 815 l 69 972 l 254 972 m 533 1258 l 389 1068 l 271 1068 l 364 1258 m 763 1258 l 618 1068 l 500 1068 l 593 1258 "},"Ū":{"ha":883,"x_min":0,"x_max":0,"o":"m 629 404 l 811 325 b 442 -11 789 115 649 -11 b 69 382 215 -11 69 139 l 69 679 l 254 679 l 254 386 b 442 174 254 254 325 174 b 629 386 557 174 629 254 m 814 972 l 814 489 l 629 569 l 629 972 m 254 815 l 69 815 l 69 972 l 254 972 m 622 1224 l 622 1083 l 261 1083 l 261 1224 "},"Ů":{"ha":883,"x_min":0,"x_max":0,"o":"m 629 404 l 811 325 b 442 -11 789 115 649 -11 b 69 382 215 -11 69 139 l 69 679 l 254 679 l 254 386 b 442 174 254 254 325 174 b 629 386 557 174 629 254 m 814 972 l 814 489 l 629 569 l 629 972 m 254 815 l 69 815 l 69 972 l 254 972 m 442 1368 b 608 1203 535 1368 608 1294 b 442 1036 608 1110 535 1036 b 275 1203 350 1036 275 1110 b 442 1368 275 1294 350 1368 m 442 1144 b 499 1203 474 1144 499 1171 b 442 1260 499 1233 474 1260 b 385 1203 411 1260 385 1233 b 442 1144 385 1171 411 1144 "},"Ũ":{"ha":883,"x_min":0,"x_max":0,"o":"m 629 404 l 811 325 b 442 -11 789 115 649 -11 b 69 382 215 -11 69 139 l 69 679 l 254 679 l 254 386 b 442 174 254 254 325 174 b 629 386 557 174 629 254 m 814 972 l 814 489 l 629 569 l 629 972 m 254 815 l 69 815 l 69 972 l 254 972 m 703 1189 b 443 1085 638 1024 540 1042 b 304 1067 361 1121 332 1121 l 181 1138 b 444 1232 247 1251 322 1286 b 568 1243 514 1201 553 1189 "},"Ẃ":{"ha":1444,"x_min":0,"x_max":0,"o":"m 994 972 l 828 586 l 950 278 l 1226 972 l 1431 972 l 1044 0 l 856 0 l 722 342 l 589 0 l 400 0 l 14 972 l 218 972 l 493 278 l 617 585 l 450 972 l 654 972 l 722 821 l 789 972 m 936 1251 l 792 1061 l 674 1061 l 767 1251 "},"Ŵ":{"ha":1444,"x_min":0,"x_max":0,"o":"m 994 972 l 828 586 l 950 278 l 1226 972 l 1431 972 l 1044 0 l 856 0 l 722 342 l 589 0 l 400 0 l 14 972 l 218 972 l 493 278 l 617 585 l 450 972 l 654 972 l 722 821 l 789 972 m 786 1060 l 722 1143 l 658 1060 l 492 1060 l 646 1250 l 797 1250 l 953 1060 "},"Ẅ":{"ha":1444,"x_min":0,"x_max":0,"o":"m 994 972 l 828 586 l 950 278 l 1226 972 l 1431 972 l 1044 0 l 856 0 l 722 342 l 589 0 l 400 0 l 14 972 l 218 972 l 493 278 l 617 585 l 450 972 l 654 972 l 722 821 l 789 972 m 588 1253 b 686 1156 642 1253 686 1210 b 588 1057 686 1101 642 1057 b 490 1156 533 1057 490 1101 b 588 1253 490 1210 533 1253 m 856 1253 b 954 1156 910 1253 954 1210 b 856 1057 954 1101 910 1057 b 758 1156 803 1057 758 1101 b 856 1253 758 1210 803 1253 "},"Ẁ":{"ha":1444,"x_min":0,"x_max":0,"o":"m 994 972 l 828 586 l 950 278 l 1226 972 l 1431 972 l 1044 0 l 856 0 l 722 342 l 589 0 l 400 0 l 14 972 l 218 972 l 493 278 l 617 585 l 450 972 l 654 972 l 722 821 l 789 972 m 785 1068 l 667 1068 l 521 1258 l 692 1258 "},"Ý":{"ha":889,"x_min":0,"x_max":0,"o":"m 353 208 l 538 208 l 538 0 l 353 0 m 875 972 l 538 369 l 353 369 l 14 972 l 226 972 l 444 568 l 664 972 m 646 1251 l 501 1061 l 383 1061 l 476 1251 "},"Ŷ":{"ha":889,"x_min":0,"x_max":0,"o":"m 353 208 l 538 208 l 538 0 l 353 0 m 875 972 l 538 369 l 353 369 l 14 972 l 226 972 l 444 568 l 664 972 m 508 1060 l 444 1143 l 381 1060 l 214 1060 l 368 1250 l 519 1250 l 675 1060 "},"Ÿ":{"ha":889,"x_min":0,"x_max":0,"o":"m 353 208 l 538 208 l 538 0 l 353 0 m 875 972 l 538 369 l 353 369 l 14 972 l 226 972 l 444 568 l 664 972 m 310 1253 b 408 1156 364 1253 408 1210 b 310 1057 408 1101 364 1057 b 213 1156 256 1057 213 1101 b 310 1253 213 1210 256 1253 m 578 1253 b 676 1156 632 1253 676 1210 b 578 1057 676 1101 632 1057 b 481 1156 525 1057 481 1101 b 578 1253 481 1210 525 1253 "},"Ỳ":{"ha":889,"x_min":0,"x_max":0,"o":"m 353 208 l 538 208 l 538 0 l 353 0 m 875 972 l 538 369 l 353 369 l 14 972 l 226 972 l 444 568 l 664 972 m 521 1068 l 403 1068 l 257 1258 l 428 1258 "},"Ź":{"ha":832,"x_min":0,"x_max":0,"o":"m 783 176 l 783 0 l 42 0 l 42 176 l 543 796 l 772 796 l 271 176 m 322 796 l 83 796 l 83 972 l 464 972 m 614 1251 l 469 1061 l 351 1061 l 444 1251 "},"Ž":{"ha":832,"x_min":0,"x_max":0,"o":"m 783 176 l 783 0 l 42 0 l 42 176 l 543 796 l 772 796 l 271 176 m 322 796 l 83 796 l 83 972 l 464 972 m 671 1250 l 517 1060 l 365 1060 l 211 1250 l 376 1250 l 442 1167 l 506 1250 "},"Ż":{"ha":832,"x_min":0,"x_max":0,"o":"m 783 176 l 783 0 l 42 0 l 42 176 l 543 796 l 772 796 l 271 176 m 322 796 l 83 796 l 83 972 l 464 972 m 440 1253 b 538 1156 494 1253 538 1210 b 440 1057 538 1101 494 1057 b 343 1156 386 1057 343 1101 b 440 1253 343 1210 386 1253 "},"á":{"ha":681,"x_min":0,"x_max":0,"o":"m 338 679 b 611 418 483 679 611 613 l 611 0 l 428 0 l 428 63 b 222 -11 403 38 336 -11 b 14 158 92 -11 19 57 b 256 386 14 304 114 356 b 424 449 368 411 415 411 b 325 528 433 489 390 531 b 214 449 268 526 225 500 l 60 482 b 338 679 72 569 171 679 m 428 294 b 279 260 428 294 367 282 b 204 164 211 242 192 197 b 299 132 215 133 257 125 b 428 274 371 143 422 200 m 538 974 l 393 783 l 275 783 l 368 974 "},"ă":{"ha":681,"x_min":0,"x_max":0,"o":"m 338 679 b 611 418 483 679 611 613 l 611 0 l 428 0 l 428 63 b 222 -11 403 38 336 -11 b 14 158 92 -11 19 57 b 256 386 14 304 114 356 b 424 449 368 411 415 411 b 325 528 433 489 390 531 b 214 449 268 526 225 500 l 60 482 b 338 679 72 569 171 679 m 428 294 b 279 260 428 294 367 282 b 204 164 211 242 192 197 b 299 132 215 133 257 125 b 428 274 371 143 422 200 m 539 950 b 364 775 539 847 461 775 b 189 950 267 775 189 847 l 307 950 b 364 893 307 915 332 893 b 421 950 396 893 421 915 "},"â":{"ha":681,"x_min":0,"x_max":0,"o":"m 338 679 b 611 418 483 679 611 613 l 611 0 l 428 0 l 428 63 b 222 -11 403 38 336 -11 b 14 158 92 -11 19 57 b 256 386 14 304 114 356 b 424 449 368 411 415 411 b 325 528 433 489 390 531 b 214 449 268 526 225 500 l 60 482 b 338 679 72 569 171 679 m 428 294 b 279 260 428 294 367 282 b 204 164 211 242 192 197 b 299 132 215 133 257 125 b 428 274 371 143 422 200 m 414 782 l 350 865 l 286 782 l 119 782 l 274 972 l 425 972 l 581 782 "},"ä":{"ha":681,"x_min":0,"x_max":0,"o":"m 338 679 b 611 418 483 679 611 613 l 611 0 l 428 0 l 428 63 b 222 -11 403 38 336 -11 b 14 158 92 -11 19 57 b 256 386 14 304 114 356 b 424 449 368 411 415 411 b 325 528 433 489 390 531 b 214 449 268 526 225 500 l 60 482 b 338 679 72 569 171 679 m 428 294 b 279 260 428 294 367 282 b 204 164 211 242 192 197 b 299 132 215 133 257 125 b 428 274 371 143 422 200 m 201 975 b 300 878 256 975 300 932 b 201 779 300 824 256 779 b 104 878 147 779 104 824 b 201 975 104 932 147 975 m 469 975 b 568 878 524 975 568 932 b 469 779 568 824 524 779 b 372 878 417 779 372 824 b 469 975 372 932 417 975 "},"à":{"ha":681,"x_min":0,"x_max":0,"o":"m 338 679 b 611 418 483 679 611 613 l 611 0 l 428 0 l 428 63 b 222 -11 403 38 336 -11 b 14 158 92 -11 19 57 b 256 386 14 304 114 356 b 424 449 368 411 415 411 b 325 528 433 489 390 531 b 214 449 268 526 225 500 l 60 482 b 338 679 72 569 171 679 m 428 294 b 279 260 428 294 367 282 b 204 164 211 242 192 197 b 299 132 215 133 257 125 b 428 274 371 143 422 200 m 426 790 l 308 790 l 163 981 l 333 981 "},"ā":{"ha":681,"x_min":0,"x_max":0,"o":"m 338 679 b 611 418 483 679 611 613 l 611 0 l 428 0 l 428 63 b 222 -11 403 38 336 -11 b 14 158 92 -11 19 57 b 256 386 14 304 114 356 b 424 449 368 411 415 411 b 325 528 433 489 390 531 b 214 449 268 526 225 500 l 60 482 b 338 679 72 569 171 679 m 428 294 b 279 260 428 294 367 282 b 204 164 211 242 192 197 b 299 132 215 133 257 125 b 428 274 371 143 422 200 m 531 946 l 531 806 l 169 806 l 169 946 "},"å":{"ha":681,"x_min":0,"x_max":0,"o":"m 338 679 b 611 418 483 679 611 613 l 611 0 l 428 0 l 428 63 b 222 -11 403 38 336 -11 b 14 158 92 -11 19 57 b 256 386 14 304 114 356 b 424 449 368 411 415 411 b 325 528 433 489 390 531 b 214 449 268 526 225 500 l 60 482 b 338 679 72 569 171 679 m 428 294 b 279 260 428 294 367 282 b 204 164 211 242 192 197 b 299 132 215 133 257 125 b 428 274 371 143 422 200 m 350 1090 b 517 925 443 1090 517 1017 b 350 758 517 832 443 758 b 183 925 258 758 183 832 b 350 1090 183 1017 258 1090 m 350 867 b 407 925 382 867 407 893 b 350 982 407 956 382 982 b 293 925 319 982 293 956 b 350 867 293 893 319 867 "},"ã":{"ha":681,"x_min":0,"x_max":0,"o":"m 338 679 b 611 418 483 679 611 613 l 611 0 l 428 0 l 428 63 b 222 -11 403 38 336 -11 b 14 158 92 -11 19 57 b 256 386 14 304 114 356 b 424 449 368 411 415 411 b 325 528 433 489 390 531 b 214 449 268 526 225 500 l 60 482 b 338 679 72 569 171 679 m 428 294 b 279 260 428 294 367 282 b 204 164 211 242 192 197 b 299 132 215 133 257 125 b 428 274 371 143 422 200 m 594 911 b 335 807 529 746 432 764 b 196 789 253 843 224 843 l 72 860 b 336 954 139 974 214 1008 b 460 965 406 924 444 911 "},"ǽ":{"ha":1168,"x_min":0,"x_max":0,"o":"m 675 268 b 824 158 696 203 747 158 b 947 218 878 158 921 181 l 1100 143 b 824 -11 1044 50 946 -11 b 535 138 731 -11 611 22 b 200 -18 457 4 324 -31 b -8 158 81 -6 -3 57 b 233 386 -8 304 92 356 b 401 449 346 411 393 411 b 303 528 411 489 368 531 b 192 449 246 526 203 500 l 38 482 b 315 679 50 569 149 679 b 558 557 418 679 513 646 b 817 679 618 632 708 679 b 1126 335 1008 679 1126 528 b 1121 268 1126 311 1125 289 m 406 294 b 257 260 406 294 344 282 b 182 164 189 242 169 197 b 276 132 193 133 235 125 b 406 274 349 143 400 200 m 817 511 b 674 397 739 511 690 464 l 951 397 b 817 511 936 464 894 511 m 800 974 l 656 783 l 538 783 l 631 974 "},"ć":{"ha":657,"x_min":0,"x_max":0,"o":"m 353 158 b 476 218 408 158 450 181 l 629 143 b 353 -11 574 50 475 -11 b 14 335 160 -11 14 142 b 353 679 14 528 160 679 b 629 525 475 679 574 618 l 476 451 b 353 511 450 488 408 511 b 196 335 253 511 196 435 b 353 158 196 235 253 158 m 536 974 l 392 783 l 274 783 l 367 974 "},"č":{"ha":657,"x_min":0,"x_max":0,"o":"m 353 158 b 476 218 408 158 450 181 l 629 143 b 353 -11 574 50 475 -11 b 14 335 160 -11 14 142 b 353 679 14 528 160 679 b 629 525 475 679 574 618 l 476 451 b 353 511 450 488 408 511 b 196 335 253 511 196 435 b 353 158 196 235 253 158 m 565 972 l 411 782 l 260 782 l 106 972 l 271 972 l 336 889 l 400 972 "},"ĉ":{"ha":657,"x_min":0,"x_max":0,"o":"m 353 158 b 476 218 408 158 450 181 l 629 143 b 353 -11 574 50 475 -11 b 14 335 160 -11 14 142 b 353 679 14 528 160 679 b 629 525 475 679 574 618 l 476 451 b 353 511 450 488 408 511 b 196 335 253 511 196 435 b 353 158 196 235 253 158 m 400 782 l 336 865 l 272 782 l 106 782 l 260 972 l 411 972 l 567 782 "},"ċ":{"ha":657,"x_min":0,"x_max":0,"o":"m 353 158 b 476 218 408 158 450 181 l 629 143 b 353 -11 574 50 475 -11 b 14 335 160 -11 14 142 b 353 679 14 528 160 679 b 629 525 475 679 574 618 l 476 451 b 353 511 450 488 408 511 b 196 335 253 511 196 435 b 353 158 196 235 253 158 m 336 975 b 433 878 390 975 433 932 b 336 779 433 824 390 779 b 239 878 282 779 239 824 b 336 975 239 932 282 975 "},"ď":{"ha":878,"x_min":0,"x_max":0,"o":"m 696 972 l 696 0 l 511 0 l 511 57 b 332 -11 464 15 404 -11 b 14 335 139 -11 14 142 b 332 679 14 528 139 679 b 511 611 404 679 464 653 l 511 972 m 353 158 b 511 335 453 158 511 235 b 353 511 511 435 453 511 b 194 335 253 511 194 435 b 353 158 194 235 253 158 m 961 972 l 864 739 l 778 739 l 814 972 "},"é":{"ha":697,"x_min":0,"x_max":0,"o":"m 204 268 b 353 158 225 203 276 158 b 476 218 407 158 450 181 l 629 143 b 353 -11 574 50 475 -11 b 14 335 160 -11 14 142 b 346 679 14 528 153 679 b 656 335 538 679 656 528 b 650 268 656 311 654 289 m 346 511 b 203 397 268 511 219 464 l 481 397 b 346 511 465 464 424 511 m 536 974 l 392 783 l 274 783 l 367 974 "},"ĕ":{"ha":697,"x_min":0,"x_max":0,"o":"m 204 268 b 353 158 225 203 276 158 b 476 218 407 158 450 181 l 629 143 b 353 -11 574 50 475 -11 b 14 335 160 -11 14 142 b 346 679 14 528 153 679 b 656 335 538 679 656 528 b 650 268 656 311 654 289 m 346 511 b 203 397 268 511 219 464 l 481 397 b 346 511 465 464 424 511 m 524 950 b 349 775 524 847 446 775 b 174 950 251 775 174 847 l 292 950 b 349 893 292 915 317 893 b 406 950 381 893 406 915 "},"ě":{"ha":697,"x_min":0,"x_max":0,"o":"m 204 268 b 353 158 225 203 276 158 b 476 218 407 158 450 181 l 629 143 b 353 -11 574 50 475 -11 b 14 335 160 -11 14 142 b 346 679 14 528 153 679 b 656 335 538 679 656 528 b 650 268 656 311 654 289 m 346 511 b 203 397 268 511 219 464 l 481 397 b 346 511 465 464 424 511 m 579 972 l 425 782 l 274 782 l 119 972 l 285 972 l 350 889 l 414 972 "},"ê":{"ha":697,"x_min":0,"x_max":0,"o":"m 204 268 b 353 158 225 203 276 158 b 476 218 407 158 450 181 l 629 143 b 353 -11 574 50 475 -11 b 14 335 160 -11 14 142 b 346 679 14 528 153 679 b 656 335 538 679 656 528 b 650 268 656 311 654 289 m 346 511 b 203 397 268 511 219 464 l 481 397 b 346 511 465 464 424 511 m 413 782 l 349 865 l 285 782 l 118 782 l 272 972 l 424 972 l 579 782 "},"ë":{"ha":697,"x_min":0,"x_max":0,"o":"m 204 268 b 353 158 225 203 276 158 b 476 218 407 158 450 181 l 629 143 b 353 -11 574 50 475 -11 b 14 335 160 -11 14 142 b 346 679 14 528 153 679 b 656 335 538 679 656 528 b 650 268 656 311 654 289 m 346 511 b 203 397 268 511 219 464 l 481 397 b 346 511 465 464 424 511 m 214 975 b 313 878 268 975 313 932 b 214 779 313 824 268 779 b 117 878 160 779 117 824 b 214 975 117 932 160 975 m 482 975 b 581 878 536 975 581 932 b 482 779 581 824 536 779 b 385 878 429 779 385 824 b 482 975 385 932 429 975 "},"ė":{"ha":697,"x_min":0,"x_max":0,"o":"m 204 268 b 353 158 225 203 276 158 b 476 218 407 158 450 181 l 629 143 b 353 -11 574 50 475 -11 b 14 335 160 -11 14 142 b 346 679 14 528 153 679 b 656 335 538 679 656 528 b 650 268 656 311 654 289 m 346 511 b 203 397 268 511 219 464 l 481 397 b 346 511 465 464 424 511 m 349 975 b 446 878 403 975 446 932 b 349 779 446 824 403 779 b 251 878 294 779 251 824 b 349 975 251 932 294 975 "},"è":{"ha":697,"x_min":0,"x_max":0,"o":"m 204 268 b 353 158 225 203 276 158 b 476 218 407 158 450 181 l 629 143 b 353 -11 574 50 475 -11 b 14 335 160 -11 14 142 b 346 679 14 528 153 679 b 656 335 538 679 656 528 b 650 268 656 311 654 289 m 346 511 b 203 397 268 511 219 464 l 481 397 b 346 511 465 464 424 511 m 425 790 l 307 790 l 161 981 l 332 981 "},"ē":{"ha":697,"x_min":0,"x_max":0,"o":"m 204 268 b 353 158 225 203 276 158 b 476 218 407 158 450 181 l 629 143 b 353 -11 574 50 475 -11 b 14 335 160 -11 14 142 b 346 679 14 528 153 679 b 656 335 538 679 656 528 b 650 268 656 311 654 289 m 346 511 b 203 397 268 511 219 464 l 481 397 b 346 511 465 464 424 511 m 529 946 l 529 806 l 168 806 l 168 946 "},"ğ":{"ha":719,"x_min":0,"x_max":0,"o":"m 690 -18 b 358 -261 697 -169 568 -262 b 28 -142 193 -260 64 -187 l 117 -36 b 333 -110 157 -76 232 -104 b 517 -36 464 -117 517 -82 b 343 7 517 7 468 0 b 158 57 264 13 199 26 b 181 256 108 93 99 185 b 68 447 114 294 68 361 b 333 679 68 590 190 679 b 499 632 396 679 453 663 b 686 728 543 689 611 728 l 686 579 b 571 553 640 582 600 574 b 599 447 588 522 599 488 b 333 215 599 304 476 215 b 306 217 324 215 314 217 b 282 179 285 206 279 190 b 361 160 288 164 321 160 b 690 -18 600 160 685 101 m 333 542 b 226 447 271 542 226 501 b 333 353 226 393 271 353 b 440 447 396 353 440 393 b 333 542 440 501 396 542 m 508 950 b 333 775 508 847 431 775 b 158 950 236 775 158 847 l 276 950 b 333 893 276 915 301 893 b 390 950 365 893 390 915 "},"ĝ":{"ha":719,"x_min":0,"x_max":0,"o":"m 690 -18 b 358 -261 697 -169 568 -262 b 28 -142 193 -260 64 -187 l 117 -36 b 333 -110 157 -76 232 -104 b 517 -36 464 -117 517 -82 b 343 7 517 7 468 0 b 158 57 264 13 199 26 b 181 256 108 93 99 185 b 68 447 114 294 68 361 b 333 679 68 590 190 679 b 499 632 396 679 453 663 b 686 728 543 689 611 728 l 686 579 b 571 553 640 582 600 574 b 599 447 588 522 599 488 b 333 215 599 304 476 215 b 306 217 324 215 314 217 b 282 179 285 206 279 190 b 361 160 288 164 321 160 b 690 -18 600 160 685 101 m 333 542 b 226 447 271 542 226 501 b 333 353 226 393 271 353 b 440 447 396 353 440 393 b 333 542 440 501 396 542 m 407 782 l 343 865 l 279 782 l 113 782 l 267 972 l 418 972 l 574 782 "},"ģ":{"ha":719,"x_min":0,"x_max":0,"o":"m 690 -18 b 358 -261 697 -169 568 -262 b 28 -142 193 -260 64 -187 l 117 -36 b 333 -110 157 -76 232 -104 b 517 -36 464 -117 517 -82 b 343 7 517 7 468 0 b 158 57 264 13 199 26 b 181 256 108 93 99 185 b 68 447 114 294 68 361 b 333 679 68 590 190 679 b 499 632 396 679 453 663 b 686 728 543 689 611 728 l 686 579 b 571 553 640 582 600 574 b 599 447 588 522 599 488 b 333 215 599 304 476 215 b 306 217 324 215 314 217 b 282 179 285 206 279 190 b 361 160 288 164 321 160 b 690 -18 600 160 685 101 m 333 542 b 226 447 271 542 226 501 b 333 353 226 393 271 353 b 440 447 396 353 440 393 b 333 542 440 501 396 542 m 357 1042 l 443 1042 l 407 808 l 260 808 "},"ġ":{"ha":719,"x_min":0,"x_max":0,"o":"m 690 -18 b 358 -261 697 -169 568 -262 b 28 -142 193 -260 64 -187 l 117 -36 b 333 -110 157 -76 232 -104 b 517 -36 464 -117 517 -82 b 343 7 517 7 468 0 b 158 57 264 13 199 26 b 181 256 108 93 99 185 b 68 447 114 294 68 361 b 333 679 68 590 190 679 b 499 632 396 679 453 663 b 686 728 543 689 611 728 l 686 579 b 571 553 640 582 600 574 b 599 447 588 522 599 488 b 333 215 599 304 476 215 b 306 217 324 215 314 217 b 282 179 285 206 279 190 b 361 160 288 164 321 160 b 690 -18 600 160 685 101 m 333 542 b 226 447 271 542 226 501 b 333 353 226 393 271 353 b 440 447 396 353 440 393 b 333 542 440 501 396 542 m 338 975 b 435 878 392 975 435 932 b 338 779 435 824 392 779 b 240 878 283 779 240 824 b 338 975 240 932 283 975 "},"ĥ":{"ha":700,"x_min":0,"x_max":0,"o":"m 382 679 b 631 364 536 679 631 569 l 631 0 l 446 0 l 446 371 b 338 507 446 468 404 507 b 226 364 272 507 226 463 l 226 0 l 42 0 l 42 972 l 226 972 l 226 611 b 382 679 267 653 319 679 m 400 1063 l 336 1146 l 272 1063 l 106 1063 l 260 1253 l 411 1253 l 567 1063 "},"í":{"ha":336,"x_min":0,"x_max":0,"o":"m 56 669 l 240 669 l 240 0 l 56 0 m 350 974 l 206 783 l 88 783 l 181 974 "},"ĭ":{"ha":350,"x_min":0,"x_max":0,"o":"m 68 669 l 253 669 l 253 0 l 68 0 m 336 950 b 161 775 336 847 258 775 b -14 950 64 775 -14 847 l 104 950 b 161 893 104 915 129 893 b 218 950 193 893 218 915 "},"î":{"ha":406,"x_min":0,"x_max":0,"o":"m 110 669 l 294 669 l 294 0 l 110 0 m 267 782 l 203 865 l 139 782 l -28 782 l 126 972 l 278 972 l 433 782 "},"ï":{"ha":406,"x_min":0,"x_max":0,"o":"m 111 669 l 296 669 l 296 0 l 111 0 m 69 975 b 168 878 124 975 168 932 b 69 779 168 824 124 779 b -28 878 15 779 -28 824 b 69 975 -28 932 15 975 m 338 975 b 436 878 392 975 436 932 b 338 779 436 824 392 779 b 240 878 285 779 240 824 b 338 975 240 932 285 975 "},"ì":{"ha":363,"x_min":0,"x_max":0,"o":"m 81 669 l 265 669 l 265 0 l 81 0 m 236 790 l 118 790 l -28 981 l 143 981 "},"ī":{"ha":382,"x_min":0,"x_max":0,"o":"m 88 669 l 272 669 l 272 0 l 88 0 m 361 946 l 361 806 l 0 806 l 0 946 "},"ĩ":{"ha":439,"x_min":0,"x_max":0,"o":"m 126 669 l 311 669 l 311 0 l 126 0 m 481 911 b 221 807 415 746 318 764 b 82 789 139 843 110 843 l -42 860 b 222 954 25 974 100 1008 b 346 965 292 924 331 911 "},"ı":{"ha":318,"x_min":0,"x_max":0,"o":"m 50 669 l 235 669 l 235 0 l 50 0 "},"ĵ":{"ha":379,"x_min":0,"x_max":0,"o":"m 97 669 l 282 669 l 282 -8 b 44 -314 282 -207 211 -314 b -83 -279 0 -314 -44 -300 l -31 -129 b 13 -137 -18 -133 -4 -137 b 97 -12 51 -137 97 -119 m 247 782 l 183 865 l 119 782 l -47 782 l 107 972 l 258 972 l 414 782 "},"ķ":{"ha":700,"x_min":0,"x_max":0,"o":"m 303 246 l 226 246 l 226 0 l 42 0 l 42 972 l 226 972 l 226 422 l 300 422 l 461 669 l 669 669 l 450 335 l 679 0 l 468 0 m 410 -107 l 326 -289 l 228 -289 l 260 -107 "},"ĺ":{"ha":465,"x_min":0,"x_max":0,"o":"m 447 68 b 249 -11 401 18 329 -15 b 49 269 135 -6 49 47 l 49 1042 l 233 1042 l 233 260 b 294 160 233 214 244 164 b 361 182 324 157 347 169 m 351 1336 l 207 1146 l 89 1146 l 182 1336 "},"ľ":{"ha":465,"x_min":0,"x_max":0,"o":"m 447 68 b 249 -11 401 18 329 -15 b 49 269 135 -6 49 47 l 49 1042 l 233 1042 l 233 260 b 294 160 233 214 244 164 b 361 182 324 157 347 169 m 493 972 l 396 739 l 310 739 l 346 972 "},"ļ":{"ha":465,"x_min":0,"x_max":0,"o":"m 447 68 b 249 -11 401 18 329 -15 b 49 269 135 -6 49 47 l 49 1042 l 233 1042 l 233 260 b 294 160 233 214 244 164 b 361 182 324 157 347 169 m 308 -107 l 225 -289 l 126 -289 l 158 -107 "},"ŀ":{"ha":557,"x_min":0,"x_max":0,"o":"m 447 68 b 249 -11 401 18 329 -15 b 49 269 135 -6 49 47 l 49 1042 l 233 1042 l 233 260 b 294 160 233 214 244 164 b 361 182 324 157 347 169 m 418 446 b 515 349 472 446 515 403 b 418 250 515 294 472 250 b 321 349 364 250 321 294 b 418 446 321 403 364 446 "},"ń":{"ha":706,"x_min":0,"x_max":0,"o":"m 389 679 b 636 364 542 679 636 569 l 636 0 l 451 0 l 451 371 b 344 507 451 468 411 507 b 233 364 278 507 233 463 l 233 0 l 49 0 l 49 669 l 233 669 l 233 611 b 389 679 274 653 326 679 m 557 974 l 413 783 l 294 783 l 388 974 "},"ŉ":{"ha":842,"x_min":0,"x_max":0,"o":"m 525 679 b 772 364 678 679 772 569 l 772 0 l 588 0 l 588 371 b 481 507 588 468 547 507 b 369 364 414 507 369 463 l 369 0 l 185 0 l 185 669 l 369 669 l 369 611 b 525 679 410 653 463 679 m 175 806 l 92 624 l -7 624 l 25 806 "},"ň":{"ha":706,"x_min":0,"x_max":0,"o":"m 389 679 b 636 364 542 679 636 569 l 636 0 l 451 0 l 451 371 b 344 507 451 468 411 507 b 233 364 278 507 233 463 l 233 0 l 49 0 l 49 669 l 233 669 l 233 611 b 389 679 274 653 326 679 m 572 972 l 418 782 l 267 782 l 113 972 l 278 972 l 343 889 l 407 972 "},"ņ":{"ha":706,"x_min":0,"x_max":0,"o":"m 389 679 b 636 364 542 679 636 569 l 636 0 l 451 0 l 451 371 b 344 507 451 468 411 507 b 233 364 278 507 233 463 l 233 0 l 49 0 l 49 669 l 233 669 l 233 611 b 389 679 274 653 326 679 m 419 -107 l 336 -289 l 238 -289 l 269 -107 "},"ñ":{"ha":706,"x_min":0,"x_max":0,"o":"m 389 679 b 636 364 542 679 636 569 l 636 0 l 451 0 l 451 371 b 344 507 451 468 411 507 b 233 364 278 507 233 463 l 233 0 l 49 0 l 49 669 l 233 669 l 233 611 b 389 679 274 653 326 679 m 604 911 b 344 807 539 746 442 764 b 206 789 263 843 233 843 l 82 860 b 346 954 149 974 224 1008 b 469 965 415 924 454 911 "},"ó":{"ha":740,"x_min":0,"x_max":0,"o":"m 360 679 b 699 335 553 679 699 528 b 360 -11 699 142 553 -11 b 21 335 167 -11 21 142 b 360 679 21 528 167 679 m 360 158 b 518 335 460 158 518 235 b 360 511 518 435 460 511 b 201 335 260 511 201 435 b 360 158 201 235 260 158 m 575 974 l 431 783 l 313 783 l 406 974 "},"ŏ":{"ha":740,"x_min":0,"x_max":0,"o":"m 360 679 b 699 335 553 679 699 528 b 360 -11 699 142 553 -11 b 21 335 167 -11 21 142 b 360 679 21 528 167 679 m 360 158 b 518 335 460 158 518 235 b 360 511 518 435 460 511 b 201 335 260 511 201 435 b 360 158 201 235 260 158 m 535 950 b 360 775 535 847 457 775 b 185 950 263 775 185 847 l 303 950 b 360 893 303 915 328 893 b 417 950 392 893 417 915 "},"ô":{"ha":740,"x_min":0,"x_max":0,"o":"m 360 679 b 699 335 553 679 699 528 b 360 -11 699 142 553 -11 b 21 335 167 -11 21 142 b 360 679 21 528 167 679 m 360 158 b 518 335 460 158 518 235 b 360 511 518 435 460 511 b 201 335 260 511 201 435 b 360 158 201 235 260 158 m 424 782 l 360 865 l 296 782 l 129 782 l 283 972 l 435 972 l 590 782 "},"ö":{"ha":740,"x_min":0,"x_max":0,"o":"m 360 679 b 699 335 553 679 699 528 b 360 -11 699 142 553 -11 b 21 335 167 -11 21 142 b 360 679 21 528 167 679 m 360 158 b 518 335 460 158 518 235 b 360 511 518 435 460 511 b 201 335 260 511 201 435 b 360 158 201 235 260 158 m 225 975 b 324 878 279 975 324 932 b 225 779 324 824 279 779 b 128 878 171 779 128 824 b 225 975 128 932 171 975 m 493 975 b 592 878 547 975 592 932 b 493 779 592 824 547 779 b 396 878 440 779 396 824 b 493 975 396 932 440 975 "},"ò":{"ha":740,"x_min":0,"x_max":0,"o":"m 360 679 b 699 335 553 679 699 528 b 360 -11 699 142 553 -11 b 21 335 167 -11 21 142 b 360 679 21 528 167 679 m 360 158 b 518 335 460 158 518 235 b 360 511 518 435 460 511 b 201 335 260 511 201 435 b 360 158 201 235 260 158 m 436 790 l 318 790 l 172 981 l 343 981 "},"ő":{"ha":740,"x_min":0,"x_max":0,"o":"m 360 679 b 699 335 553 679 699 528 b 360 -11 699 142 553 -11 b 21 335 167 -11 21 142 b 360 679 21 528 167 679 m 360 158 b 518 335 460 158 518 235 b 360 511 518 435 460 511 b 201 335 260 511 201 435 b 360 158 201 235 260 158 m 443 971 l 299 781 l 181 781 l 274 971 m 672 971 l 528 781 l 410 781 l 503 971 "},"ō":{"ha":740,"x_min":0,"x_max":0,"o":"m 360 679 b 699 335 553 679 699 528 b 360 -11 699 142 553 -11 b 21 335 167 -11 21 142 b 360 679 21 528 167 679 m 360 158 b 518 335 460 158 518 235 b 360 511 518 435 460 511 b 201 335 260 511 201 435 b 360 158 201 235 260 158 m 540 946 l 540 806 l 179 806 l 179 946 "},"ǿ":{"ha":740,"x_min":0,"x_max":0,"o":"m 640 531 b 699 335 676 475 699 408 b 360 -11 699 142 553 -11 b 190 33 297 -11 239 6 l 114 -51 l 0 51 l 79 138 b 21 335 42 193 21 261 b 360 679 21 528 167 679 b 528 635 422 679 479 664 l 606 721 l 718 618 m 201 335 b 207 281 201 315 203 297 l 408 503 b 360 511 394 508 378 511 b 201 335 260 511 201 435 m 517 335 b 511 389 517 353 515 372 l 310 165 b 360 158 325 161 342 158 b 517 335 460 158 517 235 m 554 974 l 410 783 l 292 783 l 385 974 "},"õ":{"ha":740,"x_min":0,"x_max":0,"o":"m 360 679 b 699 335 553 679 699 528 b 360 -11 699 142 553 -11 b 21 335 167 -11 21 142 b 360 679 21 528 167 679 m 360 158 b 518 335 460 158 518 235 b 360 511 518 435 460 511 b 201 335 260 511 201 435 b 360 158 201 235 260 158 m 621 911 b 361 807 556 746 458 764 b 222 789 279 843 250 843 l 99 860 b 363 954 165 974 240 1008 b 486 965 432 924 471 911 "},"ŕ":{"ha":453,"x_min":0,"x_max":0,"o":"m 382 679 b 435 675 400 679 418 678 l 400 490 b 338 507 383 501 363 507 b 226 364 272 507 226 463 l 226 0 l 42 0 l 42 669 l 226 669 l 226 611 b 382 679 267 653 319 679 m 439 974 l 294 783 l 176 783 l 269 974 "},"ř":{"ha":453,"x_min":0,"x_max":0,"o":"m 381 679 b 433 675 399 679 417 678 l 399 490 b 336 507 382 501 361 507 b 225 364 271 507 225 463 l 225 0 l 40 0 l 40 669 l 225 669 l 225 611 b 381 679 265 653 318 679 m 467 972 l 313 782 l 161 782 l 7 972 l 172 972 l 238 889 l 301 972 "},"ŗ":{"ha":453,"x_min":0,"x_max":0,"o":"m 381 679 b 433 675 399 679 417 678 l 399 490 b 336 507 382 501 361 507 b 225 364 271 507 225 463 l 225 0 l 40 0 l 40 669 l 225 669 l 225 611 b 381 679 265 653 318 679 m 203 -107 l 119 -289 l 21 -289 l 53 -107 "},"ś":{"ha":575,"x_min":0,"x_max":0,"o":"m 336 410 b 546 193 493 361 550 294 b 279 -10 542 72 433 -10 b -7 150 139 -10 15 68 l 128 222 b 247 157 142 188 200 160 b 351 203 297 154 353 167 b 225 276 350 240 318 244 b 19 488 79 328 15 378 b 272 678 24 581 99 678 b 519 513 433 678 510 574 l 378 472 b 297 531 371 494 349 526 b 210 483 226 536 208 501 b 336 410 211 458 231 442 m 471 974 l 326 783 l 208 783 l 301 974 "},"š":{"ha":575,"x_min":0,"x_max":0,"o":"m 336 410 b 546 193 493 361 550 294 b 279 -10 542 72 433 -10 b -7 150 139 -10 15 68 l 128 222 b 247 157 142 188 200 160 b 351 203 297 154 353 167 b 225 276 350 240 318 244 b 19 488 79 328 15 378 b 272 678 24 581 99 678 b 519 513 433 678 510 574 l 378 472 b 297 531 371 494 349 526 b 210 483 226 536 208 501 b 336 410 211 458 231 442 m 500 972 l 346 782 l 194 782 l 40 972 l 206 972 l 271 889 l 335 972 "},"ŝ":{"ha":575,"x_min":0,"x_max":0,"o":"m 336 410 b 546 193 493 361 550 294 b 279 -10 542 72 433 -10 b -7 150 139 -10 15 68 l 128 222 b 247 157 142 188 200 160 b 351 203 297 154 353 167 b 225 276 350 240 318 244 b 19 488 79 328 15 378 b 272 678 24 581 99 678 b 519 513 433 678 510 574 l 378 472 b 297 531 371 494 349 526 b 210 483 226 536 208 501 b 336 410 211 458 231 442 m 333 782 l 269 865 l 206 782 l 39 782 l 193 972 l 344 972 l 500 782 "},"ș":{"ha":575,"x_min":0,"x_max":0,"o":"m 336 410 b 546 193 493 361 550 294 b 279 -10 542 72 433 -10 b -7 150 139 -10 15 68 l 128 222 b 247 157 142 188 200 160 b 351 203 297 154 353 167 b 225 276 350 240 318 244 b 19 488 79 328 15 378 b 272 678 24 581 99 678 b 519 513 433 678 510 574 l 378 472 b 297 531 371 494 349 526 b 210 483 226 536 208 501 b 336 410 211 458 231 442 m 360 -107 l 276 -289 l 178 -289 l 210 -107 "},"ť":{"ha":563,"x_min":0,"x_max":0,"o":"m 496 56 b 319 -7 461 22 399 -7 b 99 206 178 -7 99 67 l 99 492 l 7 492 l 7 669 l 99 669 l 99 819 l 283 861 l 283 669 l 439 669 l 439 492 l 283 492 l 283 265 b 357 169 283 206 299 169 b 435 197 382 169 417 181 m 625 967 l 528 733 l 442 733 l 478 967 "},"ţ":{"ha":524,"x_min":0,"x_max":0,"o":"m 496 56 b 319 -7 461 22 399 -7 b 99 206 178 -7 99 67 l 99 492 l 7 492 l 7 669 l 99 669 l 99 819 l 283 861 l 283 669 l 439 669 l 439 492 l 283 492 l 283 265 b 357 169 283 206 299 169 b 435 197 382 169 417 181 m 357 -107 l 274 -289 l 175 -289 l 207 -107 "},"ú":{"ha":700,"x_min":0,"x_max":0,"o":"m 631 669 l 631 306 b 336 -10 631 100 518 -10 b 42 306 154 -10 42 100 l 42 669 l 228 669 l 228 297 b 336 163 228 201 269 163 b 446 297 403 163 446 201 l 446 669 m 544 972 l 400 782 l 282 782 l 375 972 "},"ŭ":{"ha":700,"x_min":0,"x_max":0,"o":"m 631 669 l 631 306 b 336 -10 631 100 518 -10 b 42 306 154 -10 42 100 l 42 669 l 228 669 l 228 297 b 336 163 228 201 269 163 b 446 297 403 163 446 201 l 446 669 m 518 950 b 343 775 518 847 440 775 b 168 950 246 775 168 847 l 286 950 b 343 893 286 915 311 893 b 400 950 375 893 400 915 "},"û":{"ha":700,"x_min":0,"x_max":0,"o":"m 631 669 l 631 306 b 336 -10 631 100 518 -10 b 42 306 154 -10 42 100 l 42 669 l 228 669 l 228 297 b 336 163 228 201 269 163 b 446 297 403 163 446 201 l 446 669 m 401 782 l 338 865 l 274 782 l 107 782 l 261 972 l 413 972 l 568 782 "},"ü":{"ha":700,"x_min":0,"x_max":0,"o":"m 631 669 l 631 306 b 336 -10 631 100 518 -10 b 42 306 154 -10 42 100 l 42 669 l 228 669 l 228 297 b 336 163 228 201 269 163 b 446 297 403 163 446 201 l 446 669 m 222 975 b 321 878 276 975 321 932 b 222 779 321 824 276 779 b 125 878 168 779 125 824 b 222 975 125 932 168 975 m 490 975 b 589 878 544 975 589 932 b 490 779 589 824 544 779 b 393 878 438 779 393 824 b 490 975 393 932 438 975 "},"ű":{"ha":700,"x_min":0,"x_max":0,"o":"m 631 669 l 631 306 b 336 -10 631 100 518 -10 b 42 306 154 -10 42 100 l 42 669 l 228 669 l 228 297 b 336 163 228 201 269 163 b 446 297 403 163 446 201 l 446 669 m 401 972 l 257 782 l 139 782 l 232 972 m 631 972 l 486 782 l 368 782 l 461 972 "},"ù":{"ha":700,"x_min":0,"x_max":0,"o":"m 631 669 l 631 306 b 336 -10 631 100 518 -10 b 42 306 154 -10 42 100 l 42 669 l 228 669 l 228 297 b 336 163 228 201 269 163 b 446 297 403 163 446 201 l 446 669 m 414 782 l 296 782 l 150 972 l 321 972 "},"ū":{"ha":700,"x_min":0,"x_max":0,"o":"m 631 669 l 631 306 b 336 -10 631 100 518 -10 b 42 306 154 -10 42 100 l 42 669 l 228 669 l 228 297 b 336 163 228 201 269 163 b 446 297 403 163 446 201 l 446 669 m 515 946 l 515 806 l 154 806 l 154 946 "},"ů":{"ha":700,"x_min":0,"x_max":0,"o":"m 631 669 l 631 306 b 336 -10 631 100 518 -10 b 42 306 154 -10 42 100 l 42 669 l 228 669 l 228 297 b 336 163 228 201 269 163 b 446 297 403 163 446 201 l 446 669 m 343 1090 b 510 925 436 1090 510 1017 b 343 758 510 832 436 758 b 176 925 251 758 176 832 b 343 1090 176 1017 251 1090 m 343 867 b 400 925 375 867 400 893 b 343 982 400 956 375 982 b 286 925 313 982 286 956 b 343 867 286 893 313 867 "},"ũ":{"ha":700,"x_min":0,"x_max":0,"o":"m 631 669 l 631 306 b 336 -10 631 100 518 -10 b 42 306 154 -10 42 100 l 42 669 l 228 669 l 228 297 b 336 163 228 201 269 163 b 446 297 403 163 446 201 l 446 669 m 604 911 b 344 807 539 746 442 764 b 206 789 263 843 233 843 l 82 860 b 346 954 149 974 224 1008 b 469 965 415 924 454 911 "},"ẃ":{"ha":1043,"x_min":0,"x_max":0,"o":"m 1029 669 l 799 0 l 651 0 l 514 390 l 378 0 l 231 0 l 0 669 l 185 669 l 317 288 l 447 669 l 582 669 l 713 288 l 843 669 m 733 974 l 589 783 l 471 783 l 564 974 "},"ŵ":{"ha":1043,"x_min":0,"x_max":0,"o":"m 1029 669 l 799 0 l 651 0 l 514 390 l 378 0 l 231 0 l 0 669 l 185 669 l 317 288 l 447 669 l 582 669 l 713 288 l 843 669 m 578 782 l 514 865 l 450 782 l 283 782 l 438 972 l 589 972 l 744 782 "},"ẅ":{"ha":1043,"x_min":0,"x_max":0,"o":"m 1029 669 l 799 0 l 651 0 l 514 390 l 378 0 l 231 0 l 0 669 l 185 669 l 317 288 l 447 669 l 582 669 l 713 288 l 843 669 m 379 975 b 478 878 433 975 478 932 b 379 779 478 824 433 779 b 282 878 325 779 282 824 b 379 975 282 932 325 975 m 647 975 b 746 878 701 975 746 932 b 647 779 746 824 701 779 b 550 878 594 779 550 824 b 647 975 550 932 594 975 "},"ẁ":{"ha":1043,"x_min":0,"x_max":0,"o":"m 1029 669 l 799 0 l 651 0 l 514 390 l 378 0 l 231 0 l 0 669 l 185 669 l 317 288 l 447 669 l 582 669 l 713 288 l 843 669 m 575 790 l 457 790 l 311 981 l 482 981 "},"ý":{"ha":676,"x_min":0,"x_max":0,"o":"m 663 669 b 424 14 663 669 465 118 b 49 -278 350 -175 276 -310 l 78 -107 b 240 11 136 -117 189 -121 l 0 669 l 190 669 l 332 254 l 474 669 l 663 669 m 532 974 l 388 783 l 269 783 l 363 974 "},"ŷ":{"ha":676,"x_min":0,"x_max":0,"o":"m 663 669 b 424 14 663 669 465 118 b 49 -278 350 -175 276 -310 l 78 -107 b 240 11 136 -117 189 -121 l 0 669 l 190 669 l 332 254 l 474 669 l 663 669 m 410 782 l 346 865 l 282 782 l 115 782 l 269 972 l 421 972 l 576 782 "},"ÿ":{"ha":676,"x_min":0,"x_max":0,"o":"m 663 669 b 424 14 663 669 465 118 b 49 -278 350 -175 276 -310 l 78 -107 b 240 11 136 -117 189 -121 l 0 669 l 190 669 l 332 254 l 474 669 l 663 669 m 211 975 b 310 878 265 975 310 932 b 211 779 310 824 265 779 b 114 878 157 779 114 824 b 211 975 114 932 157 975 m 479 975 b 578 878 533 975 578 932 b 479 779 578 824 533 779 b 382 878 426 779 382 824 b 479 975 382 932 426 975 "},"ỳ":{"ha":676,"x_min":0,"x_max":0,"o":"m 663 669 b 424 14 663 669 465 118 b 49 -278 350 -175 276 -310 l 78 -107 b 240 11 136 -117 189 -121 l 0 669 l 190 669 l 332 254 l 474 669 l 663 669 m 408 790 l 290 790 l 144 981 l 315 981 "},"ź":{"ha":621,"x_min":0,"x_max":0,"o":"m 558 176 l 558 0 l 42 0 l 42 176 l 332 492 l 60 492 l 60 669 l 546 669 l 546 492 l 256 176 m 501 974 l 357 783 l 239 783 l 332 974 "},"ž":{"ha":621,"x_min":0,"x_max":0,"o":"m 558 176 l 558 0 l 42 0 l 42 176 l 332 492 l 60 492 l 60 669 l 546 669 l 546 492 l 256 176 m 544 972 l 390 782 l 239 782 l 85 972 l 250 972 l 315 889 l 379 972 "},"ż":{"ha":621,"x_min":0,"x_max":0,"o":"m 558 176 l 558 0 l 42 0 l 42 176 l 332 492 l 60 492 l 60 669 l 546 669 l 546 492 l 256 176 m 314 975 b 411 878 368 975 411 932 b 314 779 411 824 368 779 b 217 878 260 779 217 824 b 314 975 217 932 260 975 "},"−":{"ha":678,"x_min":0,"x_max":0,"o":"m 601 501 l 601 349 l 63 349 l 63 501 "},"Ѓ":{"ha":646,"x_min":0,"x_max":0,"o":"m 76 156 l 261 156 l 261 0 l 76 0 m 604 972 l 604 796 l 338 796 l 160 972 m 76 850 l 261 667 l 261 293 l 76 293 m 547 1251 l 403 1061 l 285 1061 l 378 1251 "},"ѓ":{"ha":510,"x_min":0,"x_max":0,"o":"m 468 493 l 226 493 l 226 0 l 42 0 l 42 669 l 468 669 m 449 974 l 304 783 l 186 783 l 279 974 "},"Ќ":{"ha":868,"x_min":0,"x_max":0,"o":"m 379 399 l 261 399 l 261 0 l 76 0 l 76 972 l 261 972 l 261 575 l 375 575 l 631 972 l 833 972 l 540 493 l 854 0 l 624 0 m 617 1251 l 472 1061 l 354 1061 l 447 1251 "},"ќ":{"ha":696,"x_min":0,"x_max":0,"o":"m 303 246 l 226 246 l 226 0 l 42 0 l 42 669 l 226 669 l 226 422 l 301 422 l 461 669 l 669 669 l 451 335 l 675 0 l 463 0 m 532 974 l 388 783 l 269 783 l 363 974 "},"Ї":{"ha":338,"x_min":0,"x_max":0,"o":"m 75 679 l 260 679 l 260 0 l 75 0 m 260 972 l 260 815 l 75 815 l 75 972 m 33 1253 b 132 1156 88 1253 132 1210 b 33 1057 132 1101 88 1057 b -64 1156 -21 1057 -64 1101 b 33 1253 -64 1210 -21 1253 m 301 1253 b 400 1156 356 1253 400 1210 b 301 1057 400 1101 356 1057 b 204 1156 249 1057 204 1101 b 301 1253 204 1210 249 1253 "},"ї":{"ha":408,"x_min":0,"x_max":0,"o":"m 125 669 l 310 669 l 310 0 l 125 0 m 83 975 b 182 878 138 975 182 932 b 83 779 182 824 138 779 b -14 878 29 779 -14 824 b 83 975 -14 932 29 975 m 351 975 b 450 878 406 975 450 932 b 351 779 450 824 406 779 b 254 878 299 779 254 824 b 351 975 254 932 299 975 "},"Ў":{"ha":828,"x_min":0,"x_max":0,"o":"m 814 972 l 407 0 l 206 0 l 335 296 l 14 972 l 221 972 l 429 506 l 613 972 m 597 1228 b 422 1053 597 1125 519 1053 b 247 1228 325 1053 247 1125 l 365 1228 b 422 1171 365 1193 390 1171 b 479 1228 454 1171 479 1193 "},"ў":{"ha":676,"x_min":0,"x_max":0,"o":"m 663 669 b 424 14 663 669 465 118 b 49 -278 350 -175 276 -310 l 78 -107 b 240 11 136 -117 189 -121 l 0 669 l 190 669 l 332 254 l 474 669 l 663 669 m 506 950 b 331 775 506 847 428 775 b 156 950 233 775 156 847 l 274 950 b 331 893 274 915 299 893 b 388 950 363 893 388 915 "},"Ț":{"ha":790,"x_min":0,"x_max":0,"o":"m 749 972 l 749 794 l 40 794 l 40 972 m 303 650 l 488 650 l 488 0 l 303 0 m 468 -107 l 385 -289 l 286 -289 l 318 -107 "},"ț":{"ha":524,"x_min":0,"x_max":0,"o":"m 496 56 b 319 -7 461 22 399 -7 b 99 206 178 -7 99 67 l 99 492 l 7 492 l 7 669 l 99 669 l 99 819 l 283 861 l 283 669 l 439 669 l 439 492 l 283 492 l 283 265 b 357 169 283 206 299 169 b 435 197 382 169 417 181 m 357 -107 l 274 -289 l 175 -289 l 207 -107 "},"‚":{"ha":239,"x_min":0,"x_max":0,"o":"m 211 14 l 114 -219 l 28 -219 l 64 14 "},"„":{"ha":429,"x_min":0,"x_max":0,"o":"m 401 14 l 304 -219 l 218 -219 l 254 14 m 64 14 l 211 14 l 114 -219 l 28 -219 "},"H":{"ha":914,"x_min":0,"x_max":0,"o":"m 76 261 l 261 261 l 261 0 l 76 0 m 838 574 l 838 0 l 653 0 l 653 397 l 76 397 l 76 972 l 261 972 l 261 574 m 838 972 l 838 711 l 653 711 l 653 972 "}}}
